<svg xmlns="http://www.w3.org/2000/svg" viewBox="130 450 750 360" height="360" width="750">

  <defs><clipPath id="a"><path d="M475.2 98.4V79.2H795v-3.6h162.06v72.6h201.54v189.614-.013l8.753-.001v167.16H827.52V402.472H718.08v-53.28H444V495.84h-46.226V299.752h-3.214v-18.376H80.745V98.4H475.2zm-438 0V9h411.6V7.8h327V3.6h392.4V9h44.4v45h2.4v283.8h-.991v260.004h-1.728v188.148H621.305v.013-6.925H55.385v.012-199.596h-15.93v.011-298.091h16.09V98.4H37.2zm566.64 414.952h59.52v31.544h-42.055v32.832H603.84v-64.376zM0 0h1224.12v792.12H0V0z" clip-rule="evenodd"/></clipPath><clipPath id="b"><path d="M475.2 98.4V79.2H795v-3.6h162.06v72.6h201.54v189.614-.013l8.753-.001v167.16H827.52V402.472H718.08v-53.28H444V495.84h-46.226V299.752h-3.214v-18.376H80.745V98.4H475.2zm-438 0V9h411.6V7.8h327V3.6h392.4V9h44.4v45h2.4v283.8h-.991v260.004h-1.728v188.148H621.305v.013-6.925H55.385v.012-199.596h-15.93v.011-298.091h16.09V98.4H37.2zm566.64 414.952h59.52v31.544h-42.055v32.832H603.84v-64.376zM0 0h1224.12v792.12H0V0z" clip-rule="evenodd"/></clipPath><clipPath id="c"><path d="M475.2 98.4V79.2H795v-3.6h162.06v72.6h201.54v189.614-.013l8.753-.001v167.16H827.52V402.472H718.08v-53.28H444V495.84h-46.226V299.752h-3.214v-18.376H80.745V98.4H475.2zm-438 0V9h411.6V7.8h327V3.6h392.4V9h44.4v45h2.4v283.8h-.991v260.004h-1.728v188.148H621.305v.013-6.925H55.385v.012-199.596h-15.93v.011-298.091h16.09V98.4H37.2zm566.64 414.952h59.52v31.544h-42.055v32.832H603.84v-64.376zM0 0h1224.12v792.12H0V0z" clip-rule="evenodd"/></clipPath><clipPath id="d"><path d="M475.2 98.4V79.2H795v-3.6h162.06v72.6h201.54v189.614-.013l8.753-.001v167.16H827.52V402.472H718.08v-53.28H444V495.84h-46.226V299.752h-3.214v-18.376H80.745V98.4H475.2zm-438 0V9h411.6V7.8h327V3.6h392.4V9h44.4v45h2.4v283.8h-.991v260.004h-1.728v188.148H621.305v.013-6.925H55.385v.012-199.596h-15.93v.011-298.091h16.09V98.4H37.2zm566.64 414.952h59.52v31.544h-42.055v32.832H603.84v-64.376zM0 0h1224.12v792.12H0V0z" clip-rule="evenodd"/></clipPath><clipPath id="e"><path d="M475.2 98.4V79.2H795v-3.6h162.06v72.6h201.54v189.614-.013l8.753-.001v167.16H827.52V402.472H718.08v-53.28H444V495.84h-46.226V299.752h-3.214v-18.376H80.745V98.4H475.2zm-438 0V9h411.6V7.8h327V3.6h392.4V9h44.4v45h2.4v283.8h-.991v260.004h-1.728v188.148H621.305v.013-6.925H55.385v.012-199.596h-15.93v.011-298.091h16.09V98.4H37.2zm566.64 414.952h59.52v31.544h-42.055v32.832H603.84v-64.376zM0 0h1224.12v792.12H0V0z" clip-rule="evenodd"/></clipPath><clipPath id="f"><path d="M475.2 98.4V79.2H795v-3.6h162.06v72.6h201.54v189.614-.013l8.753-.001v167.16H827.52V402.472H718.08v-53.28H444V495.84h-46.226V299.752h-3.214v-18.376H80.745V98.4H475.2zm-438 0V9h411.6V7.8h327V3.6h392.4V9h44.4v45h2.4v283.8h-.991v260.004h-1.728v188.148H621.305v.013-6.925H55.385v.012-199.596h-15.93v.011-298.091h16.09V98.4H37.2zm566.64 414.952h59.52v31.544h-42.055v32.832H603.84v-64.376zM0 0h1224.12v792.12H0V0z" clip-rule="evenodd"/></clipPath><clipPath id="g"><path d="M475.2 98.4V79.2H795v-3.6h162.06v72.6h201.54v189.614-.013l8.753-.001v167.16H827.52V402.472H718.08v-53.28H444V495.84h-46.226V299.752h-3.214v-18.376H80.745V98.4H475.2zm-438 0V9h411.6V7.8h327V3.6h392.4V9h44.4v45h2.4v283.8h-.991v260.004h-1.728v188.148H621.305v.013-6.925H55.385v.012-199.596h-15.93v.011-298.091h16.09V98.4H37.2zm566.64 414.952h59.52v31.544h-42.055v32.832H603.84v-64.376zM0 0h1224.12v792.12H0V0z" clip-rule="evenodd"/></clipPath><clipPath id="h"><path d="M475.2 98.4V79.2H795v-3.6h162.06v72.6h201.54v189.614-.013l8.753-.001v167.16H827.52V402.472H718.08v-53.28H444V495.84h-46.226V299.752h-3.214v-18.376H80.745V98.4H475.2zm-438 0V9h411.6V7.8h327V3.6h392.4V9h44.4v45h2.4v283.8h-.991v260.004h-1.728v188.148H621.305v.013-6.925H55.385v.012-199.596h-15.93v.011-298.091h16.09V98.4H37.2zm566.64 414.952h59.52v31.544h-42.055v32.832H603.84v-64.376zM0 0h1224.12v792.12H0V0z" clip-rule="evenodd"/></clipPath><clipPath id="i"><path d="M475.2 98.4V79.2H795v-3.6h162.06v72.6h201.54v189.614-.013l8.753-.001v167.16H827.52V402.472H718.08v-53.28H444V495.84h-46.226V299.752h-3.214v-18.376H80.745V98.4H475.2zm-438 0V9h411.6V7.8h327V3.6h392.4V9h44.4v45h2.4v283.8h-.991v260.004h-1.728v188.148H621.305v.013-6.925H55.385v.012-199.596h-15.93v.011-298.091h16.09V98.4H37.2zm566.64 414.952h59.52v31.544h-42.055v32.832H603.84v-64.376zM0 0h1224.12v792.12H0V0z" clip-rule="evenodd"/></clipPath><clipPath id="j"><path d="M475.2 98.4V79.2H795v-3.6h162.06v72.6h201.54v189.614-.013l8.753-.001v167.16H827.52V402.472H718.08v-53.28H444V495.84h-46.226V299.752h-3.214v-18.376H80.745V98.4H475.2zm-438 0V9h411.6V7.8h327V3.6h392.4V9h44.4v45h2.4v283.8h-.991v260.004h-1.728v188.148H621.305v.013-6.925H55.385v.012-199.596h-15.93v.011-298.091h16.09V98.4H37.2zm566.64 414.952h59.52v31.544h-42.055v32.832H603.84v-64.376zM0 0h1224.12v792.12H0V0z" clip-rule="evenodd"/></clipPath><clipPath id="k"><path d="M475.2 98.4V79.2H795v-3.6h162.06v72.6h201.54v189.614-.013l8.753-.001v167.16H827.52V402.472H718.08v-53.28H444V495.84h-46.226V299.752h-3.214v-18.376H80.745V98.4H475.2zm-438 0V9h411.6V7.8h327V3.6h392.4V9h44.4v45h2.4v283.8h-.991v260.004h-1.728v188.148H621.305v.013-6.925H55.385v.012-199.596h-15.93v.011-298.091h16.09V98.4H37.2zm566.64 414.952h59.52v31.544h-42.055v32.832H603.84v-64.376zM0 0h1224.12v792.12H0V0z" clip-rule="evenodd"/></clipPath><clipPath id="l"><path d="M475.2 98.4V79.2H795v-3.6h162.06v72.6h201.54v189.614-.013l8.753-.001v167.16H827.52V402.472H718.08v-53.28H444V495.84h-46.226V299.752h-3.214v-18.376H80.745V98.4H475.2zm-438 0V9h411.6V7.8h327V3.6h392.4V9h44.4v45h2.4v283.8h-.991v260.004h-1.728v188.148H621.305v.013-6.925H55.385v.012-199.596h-15.93v.011-298.091h16.09V98.4H37.2zm566.64 414.952h59.52v31.544h-42.055v32.832H603.84v-64.376zM0 0h1224.12v792.12H0V0z" clip-rule="evenodd"/></clipPath><clipPath id="m"><path d="M475.2 98.4V79.2H795v-3.6h162.06v72.6h201.54v189.614-.013l8.753-.001v167.16H827.52V402.472H718.08v-53.28H444V495.84h-46.226V299.752h-3.214v-18.376H80.745V98.4H475.2zm-438 0V9h411.6V7.8h327V3.6h392.4V9h44.4v45h2.4v283.8h-.991v260.004h-1.728v188.148H621.305v.013-6.925H55.385v.012-199.596h-15.93v.011-298.091h16.09V98.4H37.2zm566.64 414.952h59.52v31.544h-42.055v32.832H603.84v-64.376zM0 0h1224.12v792.12H0V0z" clip-rule="evenodd"/></clipPath><clipPath id="n"><path d="M475.2 98.4V79.2H795v-3.6h162.06v72.6h201.54v189.614-.013l8.753-.001v167.16H827.52V402.472H718.08v-53.28H444V495.84h-46.226V299.752h-3.214v-18.376H80.745V98.4H475.2zm-438 0V9h411.6V7.8h327V3.6h392.4V9h44.4v45h2.4v283.8h-.991v260.004h-1.728v188.148H621.305v.013-6.925H55.385v.012-199.596h-15.93v.011-298.091h16.09V98.4H37.2zm566.64 414.952h59.52v31.544h-42.055v32.832H603.84v-64.376zM0 0h1224.12v792.12H0V0z" clip-rule="evenodd"/></clipPath><clipPath id="o"><path d="M475.2 98.4V79.2H795v-3.6h162.06v72.6h201.54v189.614-.013l8.753-.001v167.16H827.52V402.472H718.08v-53.28H444V495.84h-46.226V299.752h-3.214v-18.376H80.745V98.4H475.2zm-438 0V9h411.6V7.8h327V3.6h392.4V9h44.4v45h2.4v283.8h-.991v260.004h-1.728v188.148H621.305v.013-6.925H55.385v.012-199.596h-15.93v.011-298.091h16.09V98.4H37.2zm566.64 414.952h59.52v31.544h-42.055v32.832H603.84v-64.376zM0 0h1224.12v792.12H0V0z" clip-rule="evenodd"/></clipPath><clipPath id="p"><path d="M475.2 98.4V79.2H795v-3.6h162.06v72.6h201.54v189.614-.013l8.753-.001v167.16H827.52V402.472H718.08v-53.28H444V495.84h-46.226V299.752h-3.214v-18.376H80.745V98.4H475.2zm-438 0V9h411.6V7.8h327V3.6h392.4V9h44.4v45h2.4v283.8h-.991v260.004h-1.728v188.148H621.305v.013-6.925H55.385v.012-199.596h-15.93v.011-298.091h16.09V98.4H37.2zm566.64 414.952h59.52v31.544h-42.055v32.832H603.84v-64.376zM0 0h1224.12v792.12H0V0z" clip-rule="evenodd"/></clipPath><clipPath id="q"><path d="M475.2 98.4V79.2H795v-3.6h162.06v72.6h201.54v189.614-.013l8.753-.001v167.16H827.52V402.472H718.08v-53.28H444V495.84h-46.226V299.752h-3.214v-18.376H80.745V98.4H475.2zm-438 0V9h411.6V7.8h327V3.6h392.4V9h44.4v45h2.4v283.8h-.991v260.004h-1.728v188.148H621.305v.013-6.925H55.385v.012-199.596h-15.93v.011-298.091h16.09V98.4H37.2zm566.64 414.952h59.52v31.544h-42.055v32.832H603.84v-64.376zM0 0h1224.12v792.12H0V0z" clip-rule="evenodd"/></clipPath><clipPath id="r"><path d="M475.2 98.4V79.2H795v-3.6h162.06v72.6h201.54v189.614-.013l8.753-.001v167.16H827.52V402.472H718.08v-53.28H444V495.84h-46.226V299.752h-3.214v-18.376H80.745V98.4H475.2zm-438 0V9h411.6V7.8h327V3.6h392.4V9h44.4v45h2.4v283.8h-.991v260.004h-1.728v188.148H621.305v.013-6.925H55.385v.012-199.596h-15.93v.011-298.091h16.09V98.4H37.2zm566.64 414.952h59.52v31.544h-42.055v32.832H603.84v-64.376zM0 0h1224.12v792.12H0V0z" clip-rule="evenodd"/></clipPath><clipPath id="s"><path d="M475.2 98.4V79.2H795v-3.6h162.06v72.6h201.54v189.614-.013l8.753-.001v167.16H827.52V402.472H718.08v-53.28H444V495.84h-46.226V299.752h-3.214v-18.376H80.745V98.4H475.2zm-438 0V9h411.6V7.8h327V3.6h392.4V9h44.4v45h2.4v283.8h-.991v260.004h-1.728v188.148H621.305v.013-6.925H55.385v.012-199.596h-15.93v.011-298.091h16.09V98.4H37.2zm566.64 414.952h59.52v31.544h-42.055v32.832H603.84v-64.376zM0 0h1224.12v792.12H0V0z" clip-rule="evenodd"/></clipPath><clipPath id="t"><path d="M475.2 98.4V79.2H795v-3.6h162.06v72.6h201.54v189.614-.013l8.753-.001v167.16H827.52V402.472H718.08v-53.28H444V495.84h-46.226V299.752h-3.214v-18.376H80.745V98.4H475.2zm-438 0V9h411.6V7.8h327V3.6h392.4V9h44.4v45h2.4v283.8h-.991v260.004h-1.728v188.148H621.305v.013-6.925H55.385v.012-199.596h-15.93v.011-298.091h16.09V98.4H37.2zm566.64 414.952h59.52v31.544h-42.055v32.832H603.84v-64.376zM0 0h1224.12v792.12H0V0z" clip-rule="evenodd"/></clipPath><clipPath id="u"><path d="M475.2 98.4V79.2H795v-3.6h162.06v72.6h201.54v189.614-.013l8.753-.001v167.16H827.52V402.472H718.08v-53.28H444V495.84h-46.226V299.752h-3.214v-18.376H80.745V98.4H475.2zm-438 0V9h411.6V7.8h327V3.6h392.4V9h44.4v45h2.4v283.8h-.991v260.004h-1.728v188.148H621.305v.013-6.925H55.385v.012-199.596h-15.93v.011-298.091h16.09V98.4H37.2zm566.64 414.952h59.52v31.544h-42.055v32.832H603.84v-64.376zM0 0h1224.12v792.12H0V0z" clip-rule="evenodd"/></clipPath><clipPath id="v"><path d="M475.2 98.4V79.2H795v-3.6h162.06v72.6h201.54v189.614-.013l8.753-.001v167.16H827.52V402.472H718.08v-53.28H444V495.84h-46.226V299.752h-3.214v-18.376H80.745V98.4H475.2zm-438 0V9h411.6V7.8h327V3.6h392.4V9h44.4v45h2.4v283.8h-.991v260.004h-1.728v188.148H621.305v.013-6.925H55.385v.012-199.596h-15.93v.011-298.091h16.09V98.4H37.2zm566.64 414.952h59.52v31.544h-42.055v32.832H603.84v-64.376zM0 0h1224.12v792.12H0V0z" clip-rule="evenodd"/></clipPath><clipPath id="w"><path d="M475.2 98.4V79.2H795v-3.6h162.06v72.6h201.54v189.614-.013l8.753-.001v167.16H827.52V402.472H718.08v-53.28H444V495.84h-46.226V299.752h-3.214v-18.376H80.745V98.4H475.2zm-438 0V9h411.6V7.8h327V3.6h392.4V9h44.4v45h2.4v283.8h-.991v260.004h-1.728v188.148H621.305v.013-6.925H55.385v.012-199.596h-15.93v.011-298.091h16.09V98.4H37.2zm566.64 414.952h59.52v31.544h-42.055v32.832H603.84v-64.376zM0 0h1224.12v792.12H0V0z" clip-rule="evenodd"/></clipPath><clipPath id="x"><path d="M475.2 98.4V79.2H795v-3.6h162.06v72.6h201.54v189.614-.013l8.753-.001v167.16H827.52V402.472H718.08v-53.28H444V495.84h-46.226V299.752h-3.214v-18.376H80.745V98.4H475.2zm-438 0V9h411.6V7.8h327V3.6h392.4V9h44.4v45h2.4v283.8h-.991v260.004h-1.728v188.148H621.305v.013-6.925H55.385v.012-199.596h-15.93v.011-298.091h16.09V98.4H37.2zm566.64 414.952h59.52v31.544h-42.055v32.832H603.84v-64.376zM0 0h1224.12v792.12H0V0z" clip-rule="evenodd"/></clipPath><clipPath id="y"><path d="M475.2 98.4V79.2H795v-3.6h162.06v72.6h201.54v189.614-.013l8.753-.001v167.16H827.52V402.472H718.08v-53.28H444V495.84h-46.226V299.752h-3.214v-18.376H80.745V98.4H475.2zm-438 0V9h411.6V7.8h327V3.6h392.4V9h44.4v45h2.4v283.8h-.991v260.004h-1.728v188.148H621.305v.013-6.925H55.385v.012-199.596h-15.93v.011-298.091h16.09V98.4H37.2zm566.64 414.952h59.52v31.544h-42.055v32.832H603.84v-64.376zM0 0h1224.12v792.12H0V0z" clip-rule="evenodd"/></clipPath><clipPath id="z"><path d="M475.2 98.4V79.2H795v-3.6h162.06v72.6h201.54v189.614-.013l8.753-.001v167.16H827.52V402.472H718.08v-53.28H444V495.84h-46.226V299.752h-3.214v-18.376H80.745V98.4H475.2zm-438 0V9h411.6V7.8h327V3.6h392.4V9h44.4v45h2.4v283.8h-.991v260.004h-1.728v188.148H621.305v.013-6.925H55.385v.012-199.596h-15.93v.011-298.091h16.09V98.4H37.2zm566.64 414.952h59.52v31.544h-42.055v32.832H603.84v-64.376zM0 0h1224.12v792.12H0V0z" clip-rule="evenodd"/></clipPath><clipPath id="A"><path d="M475.2 98.4V79.2H795v-3.6h162.06v72.6h201.54v189.614-.013l8.753-.001v167.16H827.52V402.472H718.08v-53.28H444V495.84h-46.226V299.752h-3.214v-18.376H80.745V98.4H475.2zm-438 0V9h411.6V7.8h327V3.6h392.4V9h44.4v45h2.4v283.8h-.991v260.004h-1.728v188.148H621.305v.013-6.925H55.385v.012-199.596h-15.93v.011-298.091h16.09V98.4H37.2zm566.64 414.952h59.52v31.544h-42.055v32.832H603.84v-64.376zM0 0h1224.12v792.12H0V0z" clip-rule="evenodd"/></clipPath><clipPath id="B"><path d="M475.2 98.4V79.2H795v-3.6h162.06v72.6h201.54v189.614-.013l8.753-.001v167.16H827.52V402.472H718.08v-53.28H444V495.84h-46.226V299.752h-3.214v-18.376H80.745V98.4H475.2zm-438 0V9h411.6V7.8h327V3.6h392.4V9h44.4v45h2.4v283.8h-.991v260.004h-1.728v188.148H621.305v.013-6.925H55.385v.012-199.596h-15.93v.011-298.091h16.09V98.4H37.2zm566.64 414.952h59.52v31.544h-42.055v32.832H603.84v-64.376zM0 0h1224.12v792.12H0V0z" clip-rule="evenodd"/></clipPath><clipPath id="C"><path d="M475.2 98.4V79.2H795v-3.6h162.06v72.6h201.54v189.614-.013l8.753-.001v167.16H827.52V402.472H718.08v-53.28H444V495.84h-46.226V299.752h-3.214v-18.376H80.745V98.4H475.2zm-438 0V9h411.6V7.8h327V3.6h392.4V9h44.4v45h2.4v283.8h-.991v260.004h-1.728v188.148H621.305v.013-6.925H55.385v.012-199.596h-15.93v.011-298.091h16.09V98.4H37.2zm566.64 414.952h59.52v31.544h-42.055v32.832H603.84v-64.376zM0 0h1224.12v792.12H0V0z" clip-rule="evenodd"/></clipPath><clipPath id="D"><path d="M475.2 98.4V79.2H795v-3.6h162.06v72.6h201.54v189.614-.013l8.753-.001v167.16H827.52V402.472H718.08v-53.28H444V495.84h-46.226V299.752h-3.214v-18.376H80.745V98.4H475.2zm-438 0V9h411.6V7.8h327V3.6h392.4V9h44.4v45h2.4v283.8h-.991v260.004h-1.728v188.148H621.305v.013-6.925H55.385v.012-199.596h-15.93v.011-298.091h16.09V98.4H37.2zm566.64 414.952h59.52v31.544h-42.055v32.832H603.84v-64.376zM0 0h1224.12v792.12H0V0z" clip-rule="evenodd"/></clipPath><clipPath id="E"><path d="M475.2 98.4V79.2H795v-3.6h162.06v72.6h201.54v189.614-.013l8.753-.001v167.16H827.52V402.472H718.08v-53.28H444V495.84h-46.226V299.752h-3.214v-18.376H80.745V98.4H475.2zm-438 0V9h411.6V7.8h327V3.6h392.4V9h44.4v45h2.4v283.8h-.991v260.004h-1.728v188.148H621.305v.013-6.925H55.385v.012-199.596h-15.93v.011-298.091h16.09V98.4H37.2zm566.64 414.952h59.52v31.544h-42.055v32.832H603.84v-64.376zM0 0h1224.12v792.12H0V0z" clip-rule="evenodd"/></clipPath><clipPath id="F"><path d="M475.2 98.4V79.2H795v-3.6h162.06v72.6h201.54v189.614-.013l8.753-.001v167.16H827.52V402.472H718.08v-53.28H444V495.84h-46.226V299.752h-3.214v-18.376H80.745V98.4H475.2zm-438 0V9h411.6V7.8h327V3.6h392.4V9h44.4v45h2.4v283.8h-.991v260.004h-1.728v188.148H621.305v.013-6.925H55.385v.012-199.596h-15.93v.011-298.091h16.09V98.4H37.2zm566.64 414.952h59.52v31.544h-42.055v32.832H603.84v-64.376zM0 0h1224.12v792.12H0V0z" clip-rule="evenodd"/></clipPath></defs>

<g clip-path="url(#a)" transform="matrix(2 0 0 -2 0 990)">

  <g transform="translate(185,151) matrix(1 0 0 -1 0 1)">
      <text id="z3" stroke="#000000" fill="#000000" stroke-width="0.25" font-size="6" font-family="Ariel">1<tspan dy="-2">1</tspan><tspan dy="2">/</tspan><tspan dy="2">4</tspan><tspan dy="-2">"</tspan></text>
  </g>

  <path d="M175.9 165.9h40.6M212 165.9v4.4M180.4 219.8l31.6-49.4" fill="none" stroke="#000000" stroke-width=".72" stroke-linecap="round" stroke-miterlimit="1.414"/><path d="M251.3 219.8v-49.5M214.2 170.3h39.3M251.4 165.9v-12.6M175.9 161.4v-15.8M212 161.4v-15.8M203.4 193.6h18.4M215.2 193.6v-4.4M215.2 189.2l4.4 4.3M175.9 185.9h-12.3" fill="none" stroke="#000000" stroke-width=".36" stroke-linecap="round" stroke-miterlimit="1.414"/><path d="M191.7 163.6v6.8M202.9 163.6v6.8" fill="none" stroke="#000000" stroke-width=".72" stroke-linecap="round" stroke-miterlimit="1.414" stroke-dasharray="5.64, 2.88"/><path d="M175.9 219.8h4.5" fill="none" stroke="#000000" stroke-width=".72" stroke-linecap="round" stroke-miterlimit="1.414"/><path d="M173.7 201.8h-29.4M173.7 215.3h-28.5M162.4 215.3v10.1M162.4 225.4h-18M173.7 201.8v13.5" fill="none" stroke="#000000" stroke-width=".72" stroke-linecap="round" stroke-miterlimit="1.414" stroke-dasharray="5.64, 2.88"/><path d="M333.5 228.8h31.4M333.5 174.9h31.4M333.5 233.3h31.4M329 165.9h40.4M333.5 170.4h31.4M364.9 165.9v71.9" fill="none" stroke="#000000" stroke-width=".72" stroke-linecap="round" stroke-miterlimit="1.414"/><path d="M367.2 170.4h39.6M329 212.9h22.3M367.2 174.9h27M367.2 228.9h27M391.9 170.4v-11.3M367.2 233.3h39.6M391.9 233.3v13.2M335 234.7l20.9 21M328.8 147.9h36.1M328.8 163.6v-18M364.9 163.6v-18" fill="none" stroke="#000000" stroke-width=".36" stroke-linecap="round" stroke-miterlimit="1.414"/><path d="M333.5 222.5v15.3M175.9 219.8v-56.2M180.4 219.8v-49.4M175.9 170.4H212" fill="none" stroke="#000000" stroke-width=".72" stroke-linecap="round" stroke-miterlimit="1.414"/><path d="M175.9 147.8H212M218.7 165.9h34.8M181.5 171.8l17.2 17.2M200.5 190.8l2.9 2.8M182.7 219.8h70.8M126.2 199.4v15.9M142.1 215.3H124M171.4 219.8H124M355.9 255.7L343 233.4" fill="none" stroke="#000000" stroke-width=".36" stroke-linecap="round" stroke-miterlimit="1.414"/><path d="M347.9 237.8h21.5M329 237.8h6.5M341.1 237.8h2.4" fill="none" stroke="#000000" stroke-width=".72" stroke-linecap="round" stroke-miterlimit="1.414"/><path d="M371.7 237.8h17.9M394.1 237.8h25.3M394.1 165.9h25.3M371.7 165.9h17.9" fill="none" stroke="#000000" stroke-width=".36" stroke-linecap="round" stroke-miterlimit="1.414"/><path d="M357 201.9c0 1.4-.6 2.9-1.7 3.9-1 1.1-2.4 1.7-3.9 1.7s-3-.6-4-1.7c-1.1-1-1.7-2.5-1.7-3.9 0-1.5.6-3 1.7-4 1-1.1 2.5-1.7 4-1.7s2.9.6 3.9 1.7c1.1 1 1.7 2.5 1.7 4" fill="none" stroke="#000000" stroke-width=".72" stroke-linecap="round" stroke-miterlimit="1.414"/><path d="M351.3 190.4h-29" fill="none" stroke="#000000" stroke-width=".36" stroke-linecap="round" stroke-miterlimit="1.414"/><path d="M329 165.9v22.3M329 192.7v45.1M333.5 165.9v22.3M333.5 192.7v18" fill="none" stroke="#000000" stroke-width=".72" stroke-linecap="round" stroke-miterlimit="1.414"/><path d="M404.5 170.4v31.5M417.1 165.9v71.9M404.5 201.9v31.4M173.7 236.1v-18.5M175.9 236.1v-14M197.3 156.4v22.3M144.3 215.4v13.5M144.3 198.3v9.9M144.2 208.5l.9-.3-.9.3-.4.2-.3.3-.3.4-.1.5v.6l.2.5.3.3.4.3.2.1.6.3.4.5.2.6v.7l-.2.4-.4.5-.6.3-.7.2.7-.2M358.3 201.9h48.5M349.3 201.9h4.5M342.3 201.9h2.5M351.3 195.1v-6.9M351.3 204.1v-4.5M351.3 215.2v-6.6M391.9 220.7v8.2M391.9 174.9v8.4M404.5 237.8v12.4M404.5 165.9v-11.5M175.9 234.2h7.9M162.9 234.2h10.8M126.2 219.8v10M180.4 185.8h8.2" fill="none" stroke="#000000" stroke-width=".36" stroke-linecap="round" stroke-miterlimit="1.414"/><path d="M127.1 224.9l-.5-2.4-.4-2.7-.3 2.6-.3 1.9.7.2M125.4 210.3l.5 2.3.3 2.7.4-2.5.3-2-.7-.1M168.6 235l2.4-.4 2.7-.4-2.5-.3-2-.3-.2.7M181 233.4l-2.4.4-2.7.4 2.5.4 2 .3.1-.8M170.9 186.8l2.3-.5 2.7-.4-2.5-.3-1.9-.3-.2.7M185.5 184.9l-2.4.5-2.7.4 2.5.3 2 .3.1-.7M180.4 173l2.5-2.6h-2.5" fill="#000000" fill-rule="evenodd"/><path d="M185.7 174.8l-2-1.4-2.2-1.6 1.6 2 1.1 1.6.7-.4M250.4 214.8l.5 2.4.4 2.6.3-2.5.3-1.9-.7-.2M252.1 175.4l-.5-2.4-.3-2.7-.4 2.6-.3 1.9.7.2M250.6 160.8l.4 2.4.4 2.7.3-2.6.4-1.9-.8-.2M206.9 148.7l2.4-.5 2.7-.4-2.6-.3-1.9-.3-.2.7M181 147l-2.4.5-2.7.3 2.5.4 2 .3.1-.7M333.5 236.3l2.7-3h-2.7M333.5 225.8l2.7 3h-2.7M333.5 167.4l2.7 3h-2.7M333.5 177.9l2.7-3h-2.7M339.1 237.7l-2-1.3-2.1-1.7 1.5 2.1 1.1 1.6.7-.4M346.3 237.3l-1.6-1.8-1.7-2.1 1 2.3.7 1.9.7-.3M334 212.1l-2.4.4-2.6.4 2.5.4 1.9.3.2-.8M346.3 213.7l2.4-.4 2.6-.4-2.5-.3-1.9-.3-.2.7M346.3 191.3l2.4-.5 2.6-.4-2.5-.3-1.9-.3-.2.7M333.9 147l-2.4.5-2.7.4 2.6.3 1.9.3.2-.7M359.8 148.7l2.4-.4 2.7-.4-2.6-.4-1.9-.3-.2.7M392.8 238.4l-.5-2.4-.4-2.7-.3 2.5-.3 2 .7.1M391.1 223.9l.5 2.3.3 2.7.4-2.5.3-2-.7-.1M392.8 179.9l-.5-2.4-.4-2.6-.3 2.5-.3 1.9.7.2M391 165.3l.5 2.4.4 2.7.3-2.6.3-1.9-.7-.2M403.7 160.8l.4 2.4.4 2.7.4-2.6.3-1.9-.7-.2M405.4 175.4l-.5-2.4-.4-2.6-.3 2.5-.3 1.9.7.2M403.7 196.8l.4 2.4.4 2.7.4-2.6.3-1.9-.7-.2M405.4 206.9l-.5-2.4-.4-2.6-.3 2.5-.3 1.9.7.2M403.7 228.3l.4 2.3.4 2.7.4-2.5.3-1.9-.7-.2M405.4 242.9l-.5-2.4-.4-2.7-.3 2.5-.3 2 .7.1M416.3 232.8l.4 2.3.4 2.7.4-2.5.3-1.9-.7-.2M418 170.9l-.5-2.4-.4-2.6-.3 2.5-.3 1.9.7.2" fill="#000000" fill-rule="evenodd"/><path d="M355.9 255.7h25.7M365.6 255.7v-6.4M365.6 249.3l6.4 6.4M365.6 262.1l6.4-6.4M365.6 255.7v6.4" fill="none" stroke="#000000" stroke-width=".36" stroke-linecap="round" stroke-miterlimit="1.414"/><path d="M216.5 163.6v2.3M175.9 163.6h40.6M369.4 165.9v71.9" fill="none" stroke="#000000" stroke-width=".72" stroke-linecap="round" stroke-miterlimit="1.414"/><path d="M369.4 163.6v-18M369.4 147.9h15.5" fill="none" stroke="#000000" stroke-width=".36" stroke-linecap="round" stroke-miterlimit="1.414"/><path d="M374.5 147l-2.4.5-2.7.4 2.6.3 1.9.3.2-.7" fill="#000000" fill-rule="evenodd"/><path d="M216.5 161.4v-15.8M216.5 147.8h14.4" fill="none" stroke="#000000" stroke-width=".36" stroke-linecap="round" stroke-miterlimit="1.414"/><path d="M221.5 147l-2.3.5-2.7.3 2.5.4 2 .3.1-.7" fill="#000000" fill-rule="evenodd"/><path d="M175.9 164.6H86.1" fill="none" stroke="#000000" stroke-width=".36" stroke-linecap="round" stroke-miterlimit="1.414"/><path d="M170.9 165.4l2.3-.4 2.7-.4-2.5-.4-1.9-.3-.2.7" fill="#000000" fill-rule="evenodd"/></g><g clip-path="url(#b)" transform="matrix(2 0 0 -2 0 990)"><path d="M269.8 188.2c.2 0 .4.1.5.1.3.1.5.2.7.4l.1.4-.6-.3c-.2-.1-.4-.2-.6-.2l.6 3h-.5l-.6-3c-.4.1-.6.3-.8.6-.1.2-.1.5-.1.9v.7c.1.7.4 1.3.7 1.6.4.4.8.6 1.3.6.3 0 .5 0 .7-.2.2-.1.4-.2.5-.3v.5c-.1.1-.3.2-.5.3-.2.1-.4.1-.7.1-.6 0-1.1-.2-1.6-.7-.4-.4-.7-1.1-.9-1.9v-.8c0-.4.1-.8.3-1.1.2-.4.5-.6 1-.7l-.4-1.6h3l.1.4h-2.5l.3 1.2M297.6 189l-.6-.7.2-.2.5.7c.2-.3.4-.4.5-.5.2-.1.4-.1.7-.1.5 0 1 .2 1.4.7.5.5.7 1.1.9 1.9v1c0 .3-.1.6-.2.8l.6.7-.1.2-.6-.7c-.2.3-.3.4-.5.5-.2.1-.4.1-.6.1-.6 0-1.1-.2-1.5-.7-.4-.5-.7-1.1-.9-1.9v-.7-.3c0-.3.1-.6.2-.8m3.1 3.2c.1-.2.1-.4.1-.7 0-.2 0-.4-.1-.7-.1-.7-.3-1.2-.6-1.6-.4-.4-.7-.6-1.2-.6-.2 0-.3 0-.5.1l-.4.4 2.7 3.1m-.1.3l-2.7-3.1c0 .2-.1.4-.1.7 0 .2.1.4.1.7.1.7.3 1.2.7 1.6.3.4.7.6 1.1.6.2 0 .3 0 .5-.1.1-.1.3-.2.4-.4M307.1 193.3l-1.1-5h.5l.6 2.5h2.7l-.5-2.5h.5l1.1 5h-.6l-.4-2.1h-2.7l.4 2.1h-.5M313.9 192.1c-.5 0-1-.2-1.3-.5-.4-.3-.6-.8-.7-1.4-.1-.3-.1-.5-.1-.7 0-.3.1-.6.2-.8.2-.3.6-.5 1.1-.5.5 0 .9.2 1.2.5.4.4.6.8.7 1.5.1.2.1.4.1.6 0 .3-.1.6-.2.8-.2.3-.6.5-1 .5m-.1-.4c.3 0 .6-.1.7-.4.1-.2.1-.4.1-.6v-.5c-.1-.5-.3-.9-.5-1.2-.3-.3-.6-.4-.9-.4-.4 0-.6.1-.8.4-.1.2-.1.4-.1.6 0 .2 0 .4.1.6 0 .4.2.8.5 1.1.2.3.5.4.9.4M317.2 193.5l-1.1-5.2h.4l1.2 5.2h-.5M321.9 190.3c0 .2.1.4.1.6 0 .3-.1.5-.2.7-.2.4-.6.5-1 .5-.6 0-1-.2-1.4-.5-.4-.4-.6-.9-.7-1.5-.1-.2-.1-.3-.1-.5 0-.4.1-.7.3-.9.2-.3.6-.5 1.2-.5.2 0 .4 0 .7.1.2 0 .4.1.6.2l.1.4c-.2-.1-.4-.2-.6-.2-.2-.1-.5-.1-.7-.1-.4 0-.7.1-.9.3-.1.2-.2.5-.2.8v.4h2.8v.2m-.4.1h-2.3c.1.5.3.8.6 1 .2.2.5.3.9.3.3 0 .5-.1.7-.3.1-.1.1-.3.1-.6v-.4" fill="#000000" fill-rule="evenodd"/></g><g clip-path="url(#c)" transform="matrix(2 0 0 -2 0 990)"><path d="M206 109.4l.2-3.7h.5l1.5 3.4.2-3.4h.6l1.6 3.7h-.4l-1.5-3.3-.1 3.3h-.6l-1.4-3.3-.2 3.3h-.4M212.3 109.4l-.8-3.7h.5l.8 3.7h-.5M212.7 110.9l-.2-.6h.5l.1.6h-.4M215.2 110.9l-1.1-5.2h.4l1.2 5.2h-.5M217.7 110.9l-1.1-5.2h.5l1.1 5.2h-.5M223.6 108.6l.4 2.3h-.4l-.9-5.2h.4l.1.8c.1-.4.3-.7.4-.8.2-.1.3-.1.6-.1s.7.2 1 .5c.3.4.5.8.6 1.4v.7c0 .3 0 .5-.1.8-.2.3-.5.5-.8.5-.3 0-.5-.1-.6-.2-.2-.1-.4-.3-.7-.7m1.8-1.1c-.1-.4-.3-.8-.5-1.1-.2-.3-.5-.5-.8-.5-.3 0-.5.2-.6.5-.1.1-.2.3-.2.6 0 .2.1.3.1.5.1.5.3.9.5 1.2.2.3.5.4.8.4.3 0 .5-.1.6-.4.1-.2.1-.4.1-.6v-.6M230.1 107.7c0 .2.1.4.1.5 0 .4-.1.6-.2.8-.2.3-.6.5-1 .5-.6 0-1-.2-1.4-.5-.4-.4-.6-.9-.7-1.5-.1-.2-.1-.4-.1-.5 0-.4.1-.7.3-.9.2-.3.6-.5 1.2-.5.2 0 .4 0 .7.1.2 0 .4.1.6.2l.1.4-.6-.3h-.7c-.4 0-.7.1-.9.3-.2.2-.2.5-.2.8v.4h2.8v.2m-.4.1h-2.3c.1.5.3.8.6 1 .2.2.5.3.9.3.3 0 .5-.1.7-.3.1-.2.1-.3.1-.6v-.4M238 107.8c.1.2.1.4.1.6 0 .3-.1.5-.2.7-.2.3-.6.4-1.1.4-.2 0-.4 0-.6-.1-.3 0-.5-.1-.7-.1l-.1-.4c.2 0 .3.1.6.1.2.1.4.1.7.1.3 0 .6-.1.8-.2.1-.2.2-.3.2-.5 0-.1 0-.2-.1-.3v-.1h-1c-.5 0-1-.1-1.3-.3-.3-.2-.5-.6-.6-1v-.3c0-.2 0-.4.1-.5.2-.2.5-.3.9-.3.3 0 .5 0 .8.1.2.1.5.4.8.8l-.2-.8h.5l.4 2.1m-1.2-.2h.7v-.2c-.1-.4-.3-.8-.6-1-.3-.3-.6-.5-1-.5-.3 0-.5.1-.6.3-.1.1-.2.2-.2.4 0 0 0 .1.1.2 0 .3.2.5.4.6.3.2.7.2 1.2.2M240.2 110.9l-1.1-5.2h.4l1.1 5.2h-.4M242.7 110.9l-1.1-5.2h.5l1.1 5.2h-.5M246.2 109.5c-.5 0-1-.2-1.3-.5-.3-.4-.6-.8-.7-1.5 0-.2-.1-.4-.1-.6 0-.3.1-.6.2-.8.2-.3.6-.5 1.1-.5.5 0 .9.2 1.3.5.3.3.5.8.7 1.4v.7c0 .3 0 .6-.2.8-.2.3-.5.5-1 .5m-.1-.4c.3 0 .6-.1.7-.4.1-.2.1-.4.1-.6v-.6c-.1-.4-.3-.8-.5-1.1-.3-.3-.6-.4-.9-.4-.4 0-.6.1-.8.4-.1.2-.1.4-.1.6 0 .2 0 .3.1.5.1.5.2.9.5 1.2.2.3.5.4.9.4M248.4 109.4l.1-3.7h.6l1.5 3.4.2-3.4h.5l1.7 3.7h-.5l-1.4-3.3-.1 3.3h-.6l-1.4-3.3-.2 3.3h-.4M257.2 107.7c.1.2.1.4.1.5 0 .4-.1.6-.2.8-.2.3-.6.5-1 .5-.6 0-1-.2-1.4-.5-.4-.4-.6-.9-.7-1.5-.1-.2-.1-.4-.1-.5 0-.4.1-.7.3-.9.2-.3.6-.5 1.2-.5.2 0 .4 0 .7.1.2 0 .4.1.6.2l.1.4-.6-.3h-.7c-.4 0-.7.1-.9.3-.1.2-.2.5-.2.8v.4h2.8v.2m-.4.1h-2.3c.1.5.3.8.6 1 .2.2.5.3.9.3.3 0 .6-.1.7-.3.1-.2.1-.3.1-.6v-.4M260.9 108.6c-.1.4-.2.6-.4.7-.1.1-.3.2-.5.2-.4 0-.8-.2-1.1-.5-.3-.4-.5-.9-.6-1.5 0-.2-.1-.4-.1-.6 0-.3.1-.6.2-.8.2-.3.5-.5.8-.5.3 0 .5 0 .7.1.2.1.4.4.7.8l-.2-.8h.4l1 5.2h-.4l-.5-2.3m-2.2-1.1c.1.5.3.9.5 1.2.2.3.5.4.8.4.3 0 .6-.1.7-.4.1-.2.1-.4.1-.6v-.6c-.1-.4-.3-.8-.5-1.1-.3-.3-.5-.5-.9-.5-.3 0-.5.2-.6.5-.1.1-.1.3-.1.6v.5M267.1 109.4l-.8-3.7h.4l.8 3.7h-.4M267.4 110.9l-.2-.6h.5l.1.6h-.4M272 107.9v.6c0 .3 0 .5-.1.6-.1.3-.4.4-.8.4-.2 0-.4-.1-.6-.2-.2-.1-.4-.3-.7-.7l.1.8h-.4l-.7-3.7h.4l.4 2.1c.1.4.2.7.5 1 .2.2.5.3.8.3.3 0 .5-.1.6-.3.1-.1.1-.3.1-.4 0-.2 0-.3-.1-.5l-.4-2.2h.4l.5 2.2M277.6 110.9l-1.1-5.2h.5l1.1 5.2h-.5M279.8 109.4l-.8-3.7h.5l.8 3.7h-.5M280.2 110.9l-.2-.6h.5l.1.6h-.4M284.9 107.7v.5c0 .4 0 .6-.2.8-.2.3-.5.5-1 .5s-.9-.2-1.3-.5c-.4-.4-.6-.9-.8-1.5v-.5c0-.4.1-.7.2-.9.3-.3.7-.5 1.3-.5.2 0 .4 0 .6.1.3 0 .5.1.7.2l.1.4-.6-.3h-.7c-.4 0-.7.1-.9.3-.2.2-.2.5-.2.8v.4h2.7l.1.2m-.4.1h-2.3c.1.5.3.8.5 1 .3.2.6.3 1 .3.3 0 .5-.1.7-.3.1-.2.1-.3.1-.6v-.4M286 107.1c-.1-.2-.1-.4-.1-.5 0-.3 0-.5.1-.6.2-.3.5-.4.9-.4.2 0 .4 0 .6.1.2.2.5.4.8.8l-.2-.8h.5l.7 3.7h-.4l-.4-2.1c-.1-.4-.3-.7-.5-1-.3-.2-.6-.3-.9-.3-.3 0-.5.1-.6.3-.1.1-.1.2-.1.4v.5l.5 2.2h-.5l-.4-2.3M295.8 109.5c-.5 0-.9-.2-1.2-.5-.4-.4-.6-.8-.7-1.5-.1-.2-.1-.4-.1-.6 0-.3.1-.6.2-.8.2-.3.6-.5 1.1-.5.5 0 .9.2 1.2.5.4.3.6.8.7 1.4.1.3.1.5.1.7 0 .3-.1.6-.2.8-.2.3-.6.5-1.1.5m0-.4c.3 0 .6-.1.7-.4.1-.2.1-.4.1-.6v-.6c-.1-.4-.3-.8-.6-1.1-.2-.3-.5-.4-.9-.4-.3 0-.6.1-.7.4-.1.2-.1.4-.1.6v.5c.1.5.3.9.6 1.2.2.3.5.4.9.4M300.9 110.9h-.6c-.4 0-.7-.1-.9-.2-.2-.2-.4-.5-.5-.9v-.4h-.7v-.3h.6l-.7-3.4h.4l.8 3.4h1l.1.3h-1.1l.1.4c.1.3.2.5.3.6.1.1.3.2.6.2h.5l.1.3M305.4 109.4l.1-3.7h.6l1.5 3.4.1-3.4h.6l1.6 3.7h-.4l-1.4-3.3-.2 3.3h-.5l-1.5-3.3-.1 3.3h-.4M314.2 107.7v.5c0 .4 0 .6-.2.8-.2.3-.5.5-1 .5s-.9-.2-1.3-.5c-.4-.4-.6-.9-.8-1.5v-.5c0-.4.1-.7.2-.9.3-.3.7-.5 1.3-.5.2 0 .4 0 .6.1.3 0 .5.1.7.2l.1.4-.6-.3h-.7c-.4 0-.7.1-.9.3-.2.2-.2.5-.2.8v.4h2.7l.1.2m-.4.1h-2.3c.1.5.3.8.6 1 .2.2.5.3.9.3.3 0 .5-.1.7-.3.1-.2.1-.3.1-.6v-.4M316.3 110.9l-1.1-5.2h.5l1.1 5.2h-.5M320.5 108.6c-.2.4-.3.6-.5.7-.1.1-.3.2-.5.2-.4 0-.8-.2-1.1-.5-.3-.4-.5-.9-.6-1.5 0-.2-.1-.4-.1-.6 0-.3.1-.6.2-.8.2-.3.5-.5.8-.5.3 0 .5 0 .7.1.2.1.4.4.7.8l-.2-.8h.4l1 5.2h-.4l-.4-2.3m-2.3-1.1c.1.5.3.9.5 1.2.2.3.5.4.8.4.4 0 .6-.1.7-.4.1-.2.1-.4.1-.6v-.6c-.1-.4-.3-.8-.5-1.1-.3-.3-.5-.5-.9-.5-.3 0-.5.2-.6.5-.1.1-.1.3-.1.6v.5M325.5 107.7c.1.2.1.4.1.5 0 .4-.1.6-.2.8-.2.3-.5.5-1 .5s-1-.2-1.4-.5c-.3-.4-.6-.9-.7-1.5 0-.2-.1-.4-.1-.5 0-.4.1-.7.3-.9.3-.3.7-.5 1.2-.5.2 0 .5 0 .7.1.2 0 .4.1.6.2l.1.4c-.1-.1-.3-.2-.6-.3h-.7c-.4 0-.7.1-.9.3-.1.2-.2.5-.2.8v.4h2.8v.2m-.4.1h-2.3c.2.5.3.8.6 1 .3.2.6.3.9.3.3 0 .6-.1.7-.3.1-.2.2-.3.2-.6 0-.1 0-.2-.1-.4M329.3 108.6c-.2.4-.3.6-.4.7-.2.1-.4.2-.6.2-.4 0-.7-.2-1.1-.5-.3-.4-.5-.9-.6-1.5v-.6c0-.3 0-.6.1-.8.2-.3.5-.5.9-.5.2 0 .4 0 .6.1.2.1.4.4.7.8l-.2-.8h.4l1 5.2h-.4l-.4-2.3m-2.3-1.1c.1.5.3.9.5 1.2.3.3.5.4.8.4.4 0 .6-.1.7-.4.1-.2.1-.4.1-.6v-.6c-.1-.4-.3-.8-.5-1.1-.2-.3-.5-.5-.8-.5-.4 0-.6.2-.7.5-.1.1-.1.3-.1.6v.5M335.4 106.5c.1-.4.2-.7.4-.8.1-.1.3-.1.5-.1.4 0 .8.2 1.1.5.3.4.5.9.6 1.4v.7c0 .3 0 .5-.1.8-.2.3-.5.5-.9.5-.2 0-.4-.1-.6-.2-.1-.1-.4-.3-.6-.7l.1.8h-.4l-.9-5.2h.4l.4 2.3m2.2 1c-.1-.4-.3-.8-.5-1.1-.2-.3-.5-.5-.8-.5-.3 0-.5.2-.7.5 0 .1-.1.3-.1.6 0 .2 0 .3.1.5.1.5.2.9.4 1.2.3.3.5.4.8.4.4 0 .6-.1.7-.4.1-.2.1-.4.1-.6v-.6M340.1 110.9l-1.1-5.2h.4l1.2 5.2h-.5M344.9 107.8c0 .2.1.4.1.6 0 .3-.1.5-.2.7-.2.3-.6.4-1.1.4-.2 0-.5 0-.7-.1-.2 0-.4-.1-.6-.1l-.1-.4c.1 0 .3.1.5.1.3.1.5.1.7.1.4 0 .7-.1.8-.2.2-.2.2-.3.2-.5v-.4h-1c-.6 0-1-.1-1.3-.3-.4-.2-.6-.6-.6-1-.1-.1-.1-.2-.1-.3 0-.2.1-.4.2-.5.2-.2.5-.3.8-.3.3 0 .6 0 .8.1.2.1.5.4.9.8l-.2-.8h.4l.5 2.1m-1.2-.2h.7l-.1-.2c0-.4-.2-.8-.5-1-.3-.3-.6-.5-1-.5-.3 0-.5.1-.6.3-.1.1-.2.2-.2.4v.2c.1.3.3.5.5.6.3.2.6.2 1.2.2M347.1 110.5h-.4l-.2-1.1h-.5v-.3h.4l-.4-2.2c-.1-.2-.1-.4-.1-.5 0-.2.1-.4.1-.5.1-.1.4-.2.8-.2h.5l.1.3h-.5c-.1 0-.2.1-.3.1-.1 0-.2.1-.2.1 0 .1-.1.2-.1.3 0 .1.1.2.1.4l.4 2.2h1.2v.3h-1.1l.2 1.1M352.3 107.7v.5c0 .4 0 .6-.2.8-.2.3-.5.5-1 .5s-.9-.2-1.3-.5c-.4-.4-.6-.9-.8-1.5v-.5c0-.4.1-.7.3-.9.2-.3.6-.5 1.2-.5.2 0 .4 0 .6.1.3 0 .5.1.7.2l.1.4-.6-.3h-.7c-.4 0-.7.1-.9.3-.2.2-.2.5-.2.8v.4h2.7l.1.2m-.4.1h-2.3c.1.5.3.8.6 1 .2.2.5.3.9.3.3 0 .5-.1.7-.3.1-.2.1-.3.1-.6v-.4M356.6 109.3c-.1.1-.2.1-.4.2h-.7c-.4 0-.8-.1-1.1-.3-.3-.2-.4-.4-.5-.8v-.2c0-.2 0-.3.1-.4.1-.2.4-.3.7-.4h.2c.4-.1.7-.2.8-.3.1-.1.1-.2.1-.3v-.2c0-.2-.2-.4-.4-.5-.2-.1-.5-.2-.8-.2-.2 0-.4.1-.7.1-.2.1-.4.2-.5.3l-.1-.5c.2-.1.4-.1.6-.2h.6c.5 0 .9.1 1.2.3.3.2.5.4.6.8v.2c0 .2 0 .3-.1.5-.2.1-.5.2-.9.3l-.2.1c-.3.1-.5.2-.7.3 0 0-.1.1-.1.2v.2c.1.2.2.4.4.5.2.1.5.1.8.1h.6c.2-.1.4-.1.5-.2v.4M357.8 106.4l-.2-.7h.6l.1.7h-.5" fill="#000000" fill-rule="evenodd"/></g><g clip-path="url(#d)" transform="matrix(2 0 0 -2 0 990)"><path d="M214.1 119.3l-1-5h3.1l.1.4h-2.6l.4 2.1h2.5l.1.4h-2.5l.4 1.7h2.6l.1.4h-3.2M220.8 115.1l-.5-2.3h.4l1.1 5.2h-.5l-.1-.8c-.2.4-.3.7-.5.8-.1.1-.3.1-.6.1-.4 0-.8-.1-1.1-.5-.4-.4-.6-.8-.7-1.4-.1-.2-.1-.5-.1-.6 0-.4.1-.6.2-.8.2-.4.5-.6.9-.6.3 0 .5.1.7.2.2.1.5.3.8.7m-2.1 1.1c.1.5.3.9.6 1.1.2.3.5.5.9.5.3 0 .6-.2.7-.5.1-.1.1-.3.1-.6v-.5c-.1-.5-.3-.9-.6-1.2-.2-.3-.5-.4-.9-.4-.3 0-.6.1-.7.4-.1.2-.1.4-.1.6v.6M222.8 115.8c0-.2-.1-.4-.1-.6 0-.2.1-.4.2-.6.1-.2.4-.4.8-.4.2 0 .5.1.7.2.2.1.4.3.7.7l-.1-.8h.4l.8 3.7h-.5l-.4-2.1c-.1-.4-.2-.7-.5-.9-.3-.3-.6-.4-.9-.4-.3 0-.5.1-.6.3-.1.1-.1.3-.1.5v.4l.5 2.2h-.4l-.5-2.2M227.9 118l-.8-3.7h.5l.8 3.7h-.5M228.2 119.6l-.1-.7h.5l.1.7h-.5M229.7 118l.4-3.7h.7l1.8 3.7h-.4l-1.7-3.4-.4 3.4h-.4M236.9 116.5c.1.2.1.4.1.5 0 .3-.1.6-.2.7-.2.3-.6.4-1.1.4h-.7c-.2-.1-.4-.1-.6-.2l-.1-.4c.1.1.3.1.5.2.3 0 .5.1.7.1.4 0 .7-.1.9-.3.1-.1.1-.3.1-.5v-.4h-1c-.6 0-1-.1-1.3-.3-.3-.2-.5-.5-.6-.9-.1-.1-.1-.2-.1-.3 0-.2.1-.4.2-.6.2-.2.5-.3.8-.3.3 0 .6.1.8.2.3.1.5.3.9.7l-.2-.8h.5l.4 2.2m-1.2-.2h.7v-.2c-.1-.5-.3-.8-.6-1.1-.3-.3-.6-.4-1-.4-.3 0-.5.1-.6.2-.1.1-.2.2-.2.4v.2c.1.3.3.6.5.7.3.1.7.2 1.2.2M239.1 119.6l-1.2-5.3h.5l1.1 5.3h-.4M243.8 116.3v.6c0 .3 0 .5-.2.8-.2.3-.5.4-1 .4s-.9-.1-1.3-.5-.6-.8-.8-1.5v-.5c0-.3.1-.6.2-.9.3-.3.7-.5 1.3-.5.2 0 .4 0 .6.1.3 0 .5.1.7.2v.4c-.1-.1-.3-.2-.5-.2-.3-.1-.5-.1-.7-.1-.5 0-.8.1-.9.4-.2.1-.2.4-.2.7v.4h2.7l.1.2m-.4.1h-2.3c.1.5.3.8.5 1 .3.3.6.4 1 .4.3 0 .5-.1.7-.4.1-.1.1-.3.1-.5v-.5M248 116.6v.6c0 .2 0 .4-.1.6-.2.2-.4.3-.8.3-.2 0-.4 0-.6-.1-.2-.1-.4-.4-.7-.8l.1.8h-.4l-.7-3.7h.4l.4 2.1c.1.4.2.8.5 1 .2.2.5.4.8.4.3 0 .5-.1.6-.3.1-.2.1-.3.1-.5 0-.1 0-.3-.1-.4l-.4-2.3h.4l.5 2.3M250.1 119.2h-.4l-.2-1.2h-.4l-.1-.3h.4l-.4-2.2v-.5c0-.2 0-.3.1-.4.1-.2.4-.3.8-.3h.5v.4h-.8l-.1.1c-.1.1-.1.2-.1.3v.4l.5 2.2h1.1l.1.3h-1.2l.2 1.2M258.4 117.7l.1.4H258.2c-.3 0-.5 0-.7-.1-.3-.1-.5-.4-.9-.8l.2.8h-.4l-.8-3.7h.4l.5 2c.1.4.2.8.5 1.1.3.2.6.3 1 .3h.4M261.5 118.1c-.5 0-1-.1-1.3-.5-.3-.3-.6-.8-.7-1.4 0-.2-.1-.5-.1-.6 0-.4.1-.6.2-.9.2-.3.6-.5 1.1-.5.5 0 .9.2 1.3.5.3.4.5.9.7 1.5v.6c0 .3 0 .6-.2.8-.2.4-.5.5-1 .5m-.1-.3c.3 0 .6-.2.7-.5.1-.1.1-.3.1-.6v-.5c-.1-.5-.3-.9-.5-1.2-.3-.3-.6-.4-.9-.4-.4 0-.6.1-.8.4-.1.2-.1.4-.1.6 0 .2 0 .4.1.6.1.5.2.9.5 1.1.2.3.5.5.9.5M264.8 119.6l-1.1-5.3h.4l1.2 5.3h-.5M267.3 119.6l-1.1-5.3h.5l1.1 5.3h-.5M272.1 116.3v.6c0 .3-.1.5-.2.8-.2.3-.5.4-1 .4s-1-.1-1.3-.5c-.4-.4-.7-.8-.8-1.5v-.5c0-.3 0-.6.2-.9.3-.3.7-.5 1.2-.5.3 0 .5 0 .7.1.2 0 .5.1.7.2v.4c-.1-.1-.3-.2-.6-.2-.2-.1-.4-.1-.7-.1-.4 0-.7.1-.9.4-.1.1-.2.4-.2.7 0 .1 0 .3.1.4h2.7l.1.2m-.5.1h-2.3c.2.5.4.8.6 1 .3.3.6.4.9.4.4 0 .6-.1.7-.4.1-.1.2-.3.2-.5s0-.3-.1-.5M275.8 117.2c-.1.4-.3.7-.4.8-.2.1-.4.1-.6.1-.4 0-.7-.1-1-.5-.3-.4-.6-.8-.7-1.4v-.6c0-.4 0-.6.1-.8.2-.4.5-.6.9-.6.2 0 .4.1.6.2.2.1.4.3.7.7l-.2-.8h.5l.9 5.3h-.4l-.4-2.4m-2.2-1c0 .5.2.9.4 1.1.3.3.5.5.9.5.3 0 .5-.2.6-.5.1-.1.1-.3.1-.6v-.5c-.1-.5-.3-.9-.5-1.2-.2-.3-.5-.4-.8-.4-.3 0-.6.1-.7.4-.1.2-.1.4-.1.6 0 .2 0 .4.1.6M284.5 116.5c0 .2.1.4.1.5 0 .3-.1.6-.2.7-.2.3-.6.4-1.2.4h-.6c-.2-.1-.4-.1-.6-.2l-.1-.4c.1.1.3.1.5.2.2 0 .5.1.7.1.4 0 .7-.1.8-.3.2-.1.2-.3.2-.5v-.4h-1c-.6 0-1-.1-1.4-.3-.3-.2-.5-.5-.6-.9v-.3c0-.2.1-.4.2-.6.2-.2.4-.3.8-.3.3 0 .6.1.8.2.2.1.5.3.8.7l-.1-.8h.4l.5 2.2m-1.2-.2h.7l-.1-.2c-.1-.5-.2-.8-.5-1.1-.3-.3-.7-.4-1-.4-.3 0-.5.1-.7.2-.1.1-.1.2-.1.4v.2c.1.3.2.6.5.7.2.1.6.2 1.2.2M288.7 116.6v.6c0 .2 0 .4-.1.6-.1.2-.4.3-.8.3-.2 0-.4 0-.6-.1-.2-.1-.4-.4-.7-.8l.1.8h-.4l-.7-3.7h.4l.4 2.1c.1.4.3.8.5 1 .2.2.5.4.8.4.3 0 .5-.1.6-.3.1-.2.1-.3.1-.5v-.4l-.5-2.3h.4l.5 2.3M292.5 114.7l.6 3.3h-.4l-.2-.8c-.1.4-.2.7-.4.8-.1.1-.3.1-.6.1-.4 0-.7-.1-1-.5-.3-.3-.5-.8-.6-1.4-.1-.2-.1-.4-.1-.6 0-.3.1-.5.2-.8.2-.3.4-.5.8-.5.3 0 .5.1.7.2.2.1.4.3.7.7l-.1-.6c-.1-.5-.3-.8-.5-1-.3-.3-.6-.4-1-.4-.2 0-.3 0-.5.1-.1 0-.2.1-.3.1l-.1-.4c.1 0 .2-.1.4-.1s.4-.1.5-.1c.6 0 1 .2 1.3.5.3.3.5.8.6 1.4m-.1 1.5c-.1-.5-.3-.8-.5-1.1-.3-.3-.5-.4-.9-.4-.3 0-.5.1-.6.4-.1.2-.2.4-.2.6 0 .2.1.3.1.5.1.5.2.9.5 1.2.2.2.5.4.8.4.3 0 .6-.2.7-.4.1-.2.1-.4.1-.6v-.6M295.2 119.6l-1.1-5.3h.4l1.1 5.3h-.4M299.9 116.3c0 .2.1.4.1.6 0 .3-.1.5-.2.8-.3.3-.6.4-1.1.4-.5 0-.9-.1-1.3-.5s-.6-.8-.7-1.5c-.1-.1-.1-.3-.1-.5 0-.3.1-.6.3-.9.2-.3.6-.5 1.2-.5.2 0 .4 0 .7.1.2 0 .4.1.6.2l.1.4c-.2-.1-.4-.2-.6-.2-.2-.1-.5-.1-.7-.1-.4 0-.7.1-.9.4-.2.1-.2.4-.2.7v.4h2.7l.1.2m-.4.1h-2.3c.1.5.3.8.6 1 .2.3.5.4.9.4.3 0 .5-.1.7-.4.1-.1.1-.3.1-.5v-.5M304.4 118l.2-3.7h.6l1.5 3.5.1-3.5h.6l1.6 3.7h-.4l-1.4-3.2-.2 3.2h-.6l-1.4-3.2-.1 3.2h-.5M310.8 118l-.8-3.7h.4l.8 3.7h-.4M311.1 119.6l-.1-.7h.4l.2.7h-.5M313.7 119.2h-.5l-.2-1.2h-.4v-.3h.4l-.4-2.2c-.1-.2-.1-.3-.1-.5s0-.3.1-.4c.1-.2.4-.3.8-.3h.5l.1.4h-.8c-.1.1-.2.1-.2.1 0 .1-.1.2-.1.3 0 .1 0 .3.1.4l.4 2.2h1.2v.3h-1.1l.2 1.2M319 116.6v.6c0 .2 0 .4-.1.6-.2.2-.4.3-.8.3-.3 0-.5 0-.7-.1-.2-.1-.5-.4-.8-.8l.5 2.4h-.5l-1-5.3h.4l.4 2.1c.1.1.1.1.1.2v.1c.1.1.1.2.1.3.1.1.2.3.4.4.2.2.5.4.9.4.3 0 .5-.1.6-.3 0-.2.1-.3.1-.5 0-.1 0-.3-.1-.4l-.4-2.3h.4l.5 2.3M326.9 118c-.2 0-.3.1-.5.1h-.7c-.4 0-.8-.1-1.1-.2-.2-.2-.4-.5-.5-.8v-.3c0-.1 0-.3.1-.4.1-.1.4-.3.8-.3l.2-.1c.4-.1.6-.2.7-.3.1-.1.1-.2.1-.3v-.1c0-.3-.2-.4-.4-.5-.2-.2-.4-.2-.8-.2-.2 0-.4 0-.6.1-.3 0-.4.1-.6.2l-.1-.5c.2 0 .4-.1.6-.1.2-.1.5-.1.7-.1.4 0 .8.1 1.1.3.4.2.5.5.6.8v.3c0 .1 0 .3-.1.4-.1.2-.4.3-.8.4h-.3c-.3.1-.5.2-.6.3-.1.1-.2.2-.2.3l.1.1c0 .2.1.4.3.5.2.1.5.2.8.2.3 0 .5 0 .7-.1.2 0 .3-.1.4-.1l.1.4M329 119.2h-.4l-.2-1.2h-.5v-.3h.4l-.4-2.2c-.1-.2-.1-.3-.1-.5s.1-.3.1-.4c.1-.2.4-.3.8-.3h.5l.1.4h-.8c-.1.1-.2.1-.2.1 0 .1-.1.2-.1.3 0 .1.1.3.1.4l.4 2.2h1.2v.3h-1.1l.2 1.2M331.7 118l-.8-3.7h.5l.7 3.7h-.4M332 119.6l-.1-.7h.4l.2.7h-.5M336.2 119.6h-.5c-.4 0-.7-.1-.9-.3-.3-.2-.4-.5-.5-.9l-.1-.4h-.6l-.1-.3h.6l-.7-3.4h.5l.7 3.4h1.1v.3h-1l.1.5c0 .2.1.4.3.5.1.1.3.2.5.2h.6v.4M340 119.6h-.5c-.4 0-.8-.1-1-.3-.2-.2-.4-.5-.4-.9l-.1-.4h-.6l-.1-.3h.6l-.7-3.4h.5l.7 3.4h1l.1.3h-1.1l.1.5c.1.2.2.4.3.5.1.1.3.2.6.2h.5l.1.4M344.2 116.3c.1.2.1.4.1.6 0 .3-.1.5-.2.8-.2.3-.5.4-1 .4s-1-.1-1.3-.5c-.4-.4-.7-.8-.8-1.5 0-.1-.1-.3-.1-.5 0-.3.1-.6.3-.9.3-.3.7-.5 1.2-.5.3 0 .5 0 .7.1.2 0 .4.1.6.2l.1.4c-.1-.1-.3-.2-.6-.2-.2-.1-.4-.1-.7-.1-.4 0-.7.1-.9.4-.1.1-.2.4-.2.7 0 .1 0 .3.1.4h2.7v.2m-.4.1h-2.3c.2.5.4.8.6 1 .3.3.6.4.9.4.4 0 .6-.1.7-.4.1-.1.2-.3.2-.5s0-.3-.1-.5M348.4 116.6c.1.2.1.4.1.6 0 .2-.1.4-.1.6-.2.2-.4.3-.8.3-.2 0-.4 0-.6-.1-.2-.1-.5-.4-.8-.8l.2.8h-.4l-.7-3.7h.4l.4 2.1c.1.4.2.8.4 1 .3.2.6.4.9.4.3 0 .5-.1.6-.3 0-.2.1-.3.1-.5 0-.1-.1-.3-.1-.4l-.4-2.3h.4l.4 2.3M352.7 116.3c.1.2.1.4.1.6 0 .3-.1.5-.2.8-.2.3-.5.4-1 .4s-1-.1-1.4-.5c-.3-.4-.6-.8-.7-1.5 0-.1-.1-.3-.1-.5 0-.3.1-.6.3-.9.3-.3.7-.5 1.2-.5.2 0 .5 0 .7.1.2 0 .4.1.6.2l.1.4c-.1-.1-.3-.2-.6-.2-.2-.1-.4-.1-.7-.1-.4 0-.7.1-.9.4-.1.1-.2.4-.2.7v.4h2.8v.2m-.4.1H350c.2.5.4.8.6 1 .3.3.6.4.9.4.3 0 .6-.1.7-.4.1-.1.2-.3.2-.5s0-.3-.1-.5M356.6 117.7l.1.4H356.4c-.3 0-.5 0-.7-.1-.3-.1-.5-.4-.9-.8l.2.8h-.4l-.8-3.7h.4l.4 2c.1.4.3.8.6 1.1.3.2.6.3 1 .3h.4M361 118c-.2 0-.3.1-.5.1h-.7c-.4 0-.8-.1-1.1-.2-.2-.2-.4-.5-.5-.8v-.3c0-.1 0-.3.1-.4.1-.1.4-.3.8-.3l.2-.1c.4-.1.6-.2.7-.3.1-.1.1-.2.1-.3v-.1c0-.3-.1-.4-.4-.5-.2-.2-.4-.2-.7-.2-.3 0-.5 0-.7.1-.3 0-.4.1-.6.2l-.1-.5c.2 0 .4-.1.6-.1.2-.1.5-.1.7-.1.4 0 .8.1 1.1.3.4.2.5.5.6.8v.3c0 .1 0 .3-.1.4-.1.2-.4.3-.8.4h-.3c-.3.1-.5.2-.6.3-.1.1-.1.2-.1.3v.1c0 .2.1.4.3.5.2.1.5.2.8.2.3 0 .5 0 .7-.1.2 0 .3-.1.4-.1l.1.4" fill="#000000" fill-rule="evenodd"/></g><g clip-path="url(#e)" transform="matrix(2 0 0 -2 0 990)"><path d="M209.6 184.7l-.1-.3h1l.1.3h-.3l.6 3.2h-.4l-.6-.2-.1-.4.7.3-.6-2.9h-.3M214.7 187.9c-.1 0-.2 0-.3.1h-.4c-.4 0-.8-.2-1.2-.5-.3-.3-.5-.8-.6-1.3-.1-.3-.1-.6-.1-.8 0-.2 0-.4.1-.6.1-.3.4-.5.8-.5s.7.2.9.4c.3.2.4.5.5.8 0 .1.1.3.1.4 0 .2-.1.3-.2.5-.2.2-.4.3-.8.3-.1 0-.3 0-.4-.1-.2-.1-.4-.2-.6-.5.2.6.4 1 .6 1.3.2.2.5.3.9.3h.3c.2-.1.2-.1.3-.1l.1.3m-1.2-1.5c.2 0 .4-.1.5-.2 0-.1.1-.3.1-.4 0-.1 0-.2-.1-.3 0-.3-.1-.5-.3-.6-.2-.2-.4-.3-.6-.3-.3 0-.4.1-.5.3-.1.1-.1.2-.1.3v.3c0 .3.2.5.3.7.2.1.4.2.7.2" fill="#000000" fill-rule="evenodd"/></g><g clip-path="url(#f)" transform="matrix(2 0 0 -2 0 990)"><path d="M206.6 191.5l-.4-1.7c.1 0 .2.1.4.1h.4c.3 0 .5 0 .7-.2.1-.1.1-.3.1-.4v-.3c-.1-.2-.2-.4-.4-.6-.2-.2-.5-.2-.8-.2h-.5c-.1.1-.3.1-.3.2l-.1-.4c.1 0 .3-.1.4-.1h.5c.4 0 .7.1 1 .3.3.2.5.5.5.8.1.2.1.3.1.3 0 .3-.1.5-.2.6-.2.2-.5.3-.9.3h-.2s-.1 0-.3-.1l.2 1.1h1.5l.1.3h-1.8" fill="#000000" fill-rule="evenodd"/><path d="M206.9 185.4l3.5 5.3" fill="none" stroke="#000000" stroke-width=".48" stroke-linecap="round" stroke-miterlimit="1.414"/></g><g clip-path="url(#g)" transform="matrix(2 0 0 -2 0 990)"><path d="M360.7 246.2l-.1-.3h1l.1.3h-.3l.7 3.3h-.4l-.7-.3-.1-.3.7.3-.6-3h-.3M365.8 249.4c-.1 0-.2.1-.3.1h-.4c-.4 0-.8-.1-1.1-.5-.4-.3-.6-.7-.7-1.3-.1-.3-.1-.5-.1-.7 0-.3 0-.5.1-.7.2-.3.4-.4.8-.4s.7.1 1 .3c.2.2.4.5.4.9.1.1.1.2.1.3 0 .2-.1.4-.2.5-.1.2-.4.3-.7.3-.2 0-.3 0-.5-.1-.1 0-.3-.2-.6-.5.2.6.4 1.1.6 1.3.3.2.5.3.9.3h.4c.1 0 .2-.1.2-.1l.1.3m-1.2-1.4c.2 0 .4-.1.5-.3.1-.1.1-.2.1-.4v-.2c-.1-.3-.2-.5-.4-.7-.1-.2-.4-.3-.6-.3-.2 0-.4.1-.5.3-.1.1-.1.2-.1.4v.3c.1.2.2.5.4.6.1.2.3.3.6.3" fill="#000000" fill-rule="evenodd"/></g><g clip-path="url(#h)" transform="matrix(2 0 0 -2 0 990)"><path d="M357.7 253l-.3-1.7c0 .1.2.1.3.1.1 0 .3.1.4.1.3 0 .5-.1.7-.3.1-.1.1-.2.1-.4v-.2c0-.3-.2-.5-.4-.7-.2-.1-.5-.2-.8-.2-.1 0-.3 0-.4.1-.2 0-.3 0-.4.1l-.1-.4c.2 0 .3 0 .4-.1h.5c.4 0 .8.1 1 .3.3.2.5.5.6.9v.3c0 .2 0 .4-.2.5-.2.3-.4.4-.8.4-.1 0-.2 0-.2-.1h-.3l.2 1h1.5v.3h-1.8" fill="#000000" fill-rule="evenodd"/><path d="M358 246.9l3.5 5.3" fill="none" stroke="#000000" stroke-width=".48" stroke-linecap="round" stroke-miterlimit="1.414"/></g><g clip-path="url(#i)" transform="matrix(2 0 0 -2 0 990)"><path d="M378.2 151.2l3.5 5.3" fill="none" stroke="#000000" stroke-width=".48" stroke-linecap="round" stroke-miterlimit="1.414"/></g><g clip-path="url(#j)" transform="matrix(2 0 0 -2 0 990)"><path d="M384.1 156.2h-.4l-.4-1.7h.4l.4 1.7M385.4 156.2h-.4l-.4-1.7h.4l.4 1.7" fill="#000000" fill-rule="evenodd"/></g><g clip-path="url(#k)" transform="matrix(2 0 0 -2 0 990)"><path d="M380.6 150.5c.6.4 1 .8 1.3 1l.4.4c.2.2.4.4.4.5.1.1.2.2.2.4v.2c0 .2 0 .4-.2.5-.1.2-.4.3-.8.3-.1 0-.3-.1-.4-.1-.2 0-.4-.1-.6-.2l-.1-.3c.2.1.4.1.6.2.1 0 .3.1.5.1s.4-.1.5-.2c.1-.1.1-.2.1-.4v-.1c0-.2-.1-.3-.2-.4-.1-.2-.2-.3-.4-.5-.1-.1-.4-.3-.7-.6-.4-.4-.7-.6-1-.8v-.3h2.2v.3h-1.8" fill="#000000" fill-rule="evenodd"/></g><g clip-path="url(#l)" transform="matrix(2 0 0 -2 0 990)"><path d="M377.7 154l-.1-.4h1.1v.4h-.3l.7 3.2h-.4l-.6-.2-.2-.4.8.3-.6-2.9h-.4" fill="#000000" fill-rule="evenodd"/><path d="M225 151.3l3.5 5.3" fill="none" stroke="#000000" stroke-width=".48" stroke-linecap="round" stroke-miterlimit="1.414"/></g><g clip-path="url(#m)" transform="matrix(2 0 0 -2 0 990)"><path d="M230.9 156.4h-.4l-.4-1.8h.4l.4 1.8M232.2 156.4h-.4l-.4-1.8h.4l.4 1.8" fill="#000000" fill-rule="evenodd"/></g><g clip-path="url(#n)" transform="matrix(2 0 0 -2 0 990)"><path d="M227.4 150.6c.6.5 1 .9 1.3 1.1.2.2.4.3.4.4.2.2.4.3.4.4.1.2.2.3.2.5v.2c0 .2 0 .3-.2.5-.1.1-.4.2-.8.2h-.4c-.2-.1-.4-.1-.6-.2l-.1-.3c.2 0 .4.1.6.2h.5c.2 0 .4 0 .5-.2.1-.1.1-.2.1-.3v-.2c0-.1-.1-.2-.2-.4-.1-.1-.2-.3-.4-.4l-.7-.7c-.4-.3-.7-.5-.9-.7l-.1-.4h2.2v.3h-1.8" fill="#000000" fill-rule="evenodd"/></g><g clip-path="url(#o)" transform="matrix(2 0 0 -2 0 990)"><path d="M224.5 154.1l-.1-.3h1.1v.3h-.3l.7 3.3h-.4l-.6-.2-.2-.4.8.3-.6-3h-.4" fill="#000000" fill-rule="evenodd"/><path d="M164.4 236.5l3.5 5.3" fill="none" stroke="#000000" stroke-width=".48" stroke-linecap="round" stroke-miterlimit="1.414"/></g><g clip-path="url(#p)" transform="matrix(2 0 0 -2 0 990)"><path d="M170.3 241.6h-.5l-.3-1.8h.4l.4 1.8M171.6 241.6h-.5l-.3-1.8h.4l.4 1.8" fill="#000000" fill-rule="evenodd"/></g><g clip-path="url(#q)" transform="matrix(2 0 0 -2 0 990)"><path d="M167.3 237.4c-.3-.1-.4-.2-.6-.3l-.3-.6v-.3c0-.2 0-.3.1-.5.2-.1.5-.2.9-.2s.7.1.9.2c.3.2.4.5.5.8v.2c0 .1 0 .3-.1.4-.1.1-.2.2-.4.3.2.1.4.2.5.4.1.1.2.2.3.4v.2c0 .2-.1.4-.2.5-.1.1-.4.2-.8.2-.3 0-.6-.1-.8-.2-.2-.2-.4-.4-.4-.7-.1 0-.1-.1-.1-.1 0-.2.1-.3.1-.3.1-.2.2-.3.4-.4m-.1.8c.1.2.2.4.3.5.2.1.4.2.6.2.2 0 .4-.1.5-.2.1-.1.1-.2.1-.3v-.2c-.1-.2-.2-.4-.3-.5-.2-.1-.4-.2-.6-.2-.2 0-.4.1-.5.2-.1.1-.1.2-.1.3v.2m.6-.9c.2 0 .4-.1.5-.2.1-.1.1-.3.1-.4v-.2c0-.2-.2-.4-.3-.6-.2-.1-.4-.2-.7-.2-.2 0-.4.1-.5.2-.1.1-.1.3-.1.4v.2c0 .2.1.4.3.6.2.1.4.2.7.2" fill="#000000" fill-rule="evenodd"/></g><g clip-path="url(#r)" transform="matrix(2 0 0 -2 0 990)"><path d="M163.9 239.3l-.1-.3h1l.1.3h-.3l.7 3.3h-.4l-.7-.3-.1-.3.8.3-.7-3h-.3" fill="#000000" fill-rule="evenodd"/><path d="M87.5 167l3.5 5.3" fill="none" stroke="#000000" stroke-width=".48" stroke-linecap="round" stroke-miterlimit="1.414"/></g><g clip-path="url(#s)" transform="matrix(2 0 0 -2 0 990)"><path d="M87.5 153.5l-.9-5.1h.4l.8 4.6 1.2-4.6h.7l.9 5.1h-.4l-.8-4.7-1.3 4.7h-.6M93.6 152.3c-.5 0-.9-.2-1.3-.6-.3-.3-.5-.8-.7-1.4v-.6c0-.4 0-.6.2-.8.2-.4.5-.6 1-.6s.9.2 1.3.6c.3.3.6.8.7 1.4 0 .2.1.4.1.6 0 .3-.1.6-.2.8-.3.4-.6.6-1.1.6m-.1-.4c.4 0 .6-.2.8-.5 0-.1.1-.3.1-.6 0-.1 0-.3-.1-.5-.1-.5-.2-.9-.5-1.2-.3-.3-.6-.4-.9-.4-.3 0-.6.1-.7.4-.1.2-.2.4-.2.6 0 .2.1.4.1.6.1.5.3.9.5 1.2.3.2.6.4.9.4M96 149.1l-.1-.7h.5l.2.7H96M102.1 148.8l-.1-.5h1.5l.1.5h-.5l1 4.7h-.6l-.9-.4-.2-.5 1.1.4-.9-4.2h-.5M112.2 153.7h-.5c-.4 0-.8-.1-1-.3-.2-.2-.4-.5-.4-.9l-.1-.3h-.6l-.1-.4h.6l-.7-3.4h.5l.7 3.4h1l.1.4h-1v.4c.1.3.2.4.3.6.2.1.3.1.6.1h.5l.1.4M114 152.2l-.8-3.8h.4l.8 3.8h-.4M114.3 153.7l-.2-.7h.5l.1.7h-.4M118.9 150.7v.6c0 .2 0 .4-.1.6-.2.2-.4.4-.8.4-.2 0-.4-.1-.6-.2-.2-.1-.4-.4-.7-.8l.1.9h-.4l-.7-3.8h.4l.4 2.1c.1.5.2.8.5 1 .2.2.5.4.8.4.3 0 .5-.1.6-.3.1-.2.1-.3.1-.5 0-.1 0-.3-.1-.4l-.4-2.3h.4l.5 2.3M120.7 152.2l-.8-3.8h.4l.8 3.8h-.4M121 153.7l-.1-.7h.4l.2.7h-.5M125.7 152.1c-.1 0-.2.1-.4.1s-.4.1-.7.1c-.4 0-.8-.1-1.1-.3-.3-.2-.4-.5-.5-.8v-.3c0-.1 0-.3.1-.4.1-.1.4-.2.7-.3l.2-.1c.4-.1.7-.2.8-.3.1 0 .1-.1.1-.3v-.1c0-.2-.2-.4-.4-.5-.2-.1-.5-.2-.8-.2-.2 0-.4 0-.7.1-.2.1-.4.1-.5.2l-.1-.4c.2-.1.4-.2.6-.2.2 0 .4-.1.6-.1.5 0 .9.1 1.2.3.3.2.5.5.6.8v.3c0 .1 0 .3-.1.4-.2.2-.4.3-.9.4h-.2c-.3.1-.5.2-.6.3-.1.1-.2.2-.2.3v.1c.1.2.2.4.4.5.2.1.5.2.8.2.2 0 .4 0 .6-.1.2 0 .4-.1.5-.1v.4M130.1 150.7c0 .2.1.4.1.6 0 .2-.1.4-.2.6-.1.2-.4.4-.8.4-.2 0-.5-.1-.7-.2-.2-.1-.4-.4-.8-.8l.5 2.4h-.4l-1.1-5.3h.5l.4 2.1v.2s0 .1.1.1c0 .1 0 .2.1.3.1.2.2.3.3.4.2.2.5.4.9.4.3 0 .5-.1.6-.3.1-.2.1-.3.1-.5v-.4l-.5-2.3h.4l.5 2.3" fill="#000000" fill-rule="evenodd"/></g><g clip-path="url(#t)" transform="matrix(2 0 0 -2 0 990)"><path d="M87.4 158.1c.1-.4.2-.7.4-.8.1-.1.3-.1.5-.1.4 0 .7.1 1 .5.3.3.6.8.7 1.4v.6c0 .3 0 .6-.1.8-.2.4-.5.6-.9.6-.2 0-.4-.1-.6-.2-.2-.1-.4-.3-.6-.8l.1.9h-.4l-.9-5.2h.4l.4 2.3m2.1 1c0-.5-.2-.9-.4-1.2-.3-.2-.5-.4-.8-.4-.3 0-.6.2-.7.4 0 .2-.1.4-.1.7 0 .1 0 .3.1.5.1.5.2.9.4 1.2.3.3.5.4.8.4.4 0 .6-.1.7-.4.1-.2.1-.4.1-.6 0-.2 0-.4-.1-.6M92.1 162.5l-1.1-5.2h.4l1.2 5.2h-.5M96.9 159.4c0 .2.1.4.1.6 0 .3-.1.5-.2.7-.2.2-.6.4-1.1.4-.2 0-.5-.1-.7-.1-.2 0-.4-.1-.6-.2l-.1-.4c.1.1.3.2.5.2.3.1.5.1.7.1.4 0 .7-.1.8-.3.2-.1.2-.3.2-.5v-.4h-1c-.6 0-1-.1-1.3-.3-.4-.2-.6-.5-.7-.9v-.3c0-.2.1-.4.2-.5.2-.2.4-.3.8-.3.3 0 .6 0 .8.1.2.1.5.4.8.8l-.1-.8h.4l.5 2.1m-1.2-.2h.7l-.1-.2c-.1-.5-.2-.8-.5-1.1-.3-.3-.7-.4-1-.4-.3 0-.5.1-.7.2-.1.1-.1.3-.1.4v.2c.1.4.2.6.5.7.2.1.6.2 1.2.2M99.1 162.1h-.5l-.2-1.1H98v-.3h.4l-.4-2.3c-.1-.1-.1-.3-.1-.5s.1-.3.1-.4c.1-.2.4-.2.8-.2h.5l.1.3h-.5c-.1 0-.2 0-.3.1-.1 0-.2 0-.2.1 0 0-.1.1-.1.2 0 .2.1.3.1.4l.4 2.3h1.2v.3h-1.1l.2 1.1M104.3 159.3v.5c0 .3 0 .6-.2.8-.2.3-.5.5-1 .5s-.9-.2-1.3-.6c-.4-.3-.6-.8-.8-1.4v-.6c0-.3.1-.6.2-.8.3-.4.7-.5 1.3-.5h.6c.3.1.5.1.7.2l.1.4c-.2-.1-.4-.1-.6-.2-.3 0-.5-.1-.7-.1-.5 0-.8.1-.9.4-.2.2-.2.4-.2.7v.4h2.7l.1.3m-.4.1h-2.3c.1.4.3.8.5 1 .3.2.6.3 1 .3.3 0 .5-.1.7-.3.1-.2.1-.4.1-.6v-.4M105.7 158l-.1-.6-.5-1h.3l.8 1.1.1.5h-.6M113.4 162.2l-2.8-5h.6l.7 1.3h2.3l.1-1.3h.5l-.8 5h-.6m.3-.4l.4-2.9h-2l1.6 2.9M116.1 157.7c.8.6 1.4 1.1 1.7 1.5.4.3.6.5.7.5.3.3.5.5.6.7.1.2.2.4.2.6v.3c0 .3 0 .5-.2.7-.3.2-.7.4-1.2.4-.2 0-.4-.1-.6-.1-.3-.1-.6-.2-.8-.3l-.1-.5c.2.2.4.3.7.3.3.1.5.1.8.1.3 0 .5 0 .7-.2.1-.2.2-.3.2-.5v-.3c-.1-.2-.2-.3-.3-.5-.1-.2-.3-.4-.6-.7-.2-.1-.5-.4-1.1-.9-.5-.5-1-.8-1.3-1.1l-.1-.4h3.1l.1.4h-2.5M122.9 162.3l-2.6-3.3-.2-.5h2.3l-.3-1.2h.5l.3 1.2h.7l.1.4h-.7l.7 3.4h-.8m.2-.3l-.6-3.1h-2l2.6 3.1M127 162.4c-.6 0-1-.3-1.4-.7-.4-.4-.7-1.1-.9-1.9-.1-.4-.1-.8-.1-1.1 0-.4 0-.7.2-.9.2-.4.5-.6 1.1-.6.5 0 1 .2 1.4.6.4.5.7 1.1.8 2 .1.4.2.7.2 1 0 .4-.1.7-.2.9-.2.4-.6.7-1.1.7m-.1-.4c.4 0 .7-.2.8-.6v-.6c0-.3 0-.6-.1-1-.1-.8-.4-1.3-.6-1.7-.3-.4-.6-.6-1-.6s-.7.2-.8.6c-.1.2-.1.4-.1.6 0 .3.1.6.2 1.1.1.7.3 1.2.6 1.6.3.4.6.6 1 .6M129.6 158l-.1-.6-.5-1h.3l.8 1.1.1.5h-.6M134.9 162.3l-.2-.4h1.8l-1-4.6h.5l1 4.6h1.7l.1.4h-3.9M140.7 156.8l2 4.2h-.3l-1.6-3.2-.5 3.2h-.4l.6-3.8-.2-.3c-.1-.3-.2-.5-.3-.6-.1-.1-.3-.2-.4-.2v.1l-.1-.4h.1c.2 0 .4 0 .6.2.1.1.3.4.5.8M144.5 158.1c.1-.4.3-.7.4-.8.1-.1.3-.1.6-.1s.7.1 1 .5c.3.3.5.8.6 1.4v.6c0 .3 0 .6-.1.8-.2.4-.5.6-.8.6-.3 0-.5-.1-.7-.2-.1-.1-.4-.3-.6-.8l.1.9h-.4l-.9-5.2h.4l.4 2.3m2.2 1c-.1-.5-.3-.9-.5-1.2-.2-.2-.5-.4-.8-.4-.3 0-.5.2-.7.4 0 .2-.1.4-.1.7 0 .1.1.3.1.5.1.5.2.9.5 1.2.2.3.5.4.8.4.3 0 .5-.1.6-.4.1-.2.1-.4.1-.6v-.6M151.4 159.3c0 .2.1.3.1.5 0 .3-.1.6-.2.8-.3.3-.6.5-1.1.5-.5 0-.9-.2-1.3-.6-.4-.3-.6-.8-.7-1.4-.1-.2-.1-.4-.1-.6 0-.3.1-.6.3-.8.2-.4.6-.5 1.2-.5h.7c.2.1.4.1.6.2l.1.4c-.2-.1-.4-.1-.6-.2-.2 0-.5-.1-.7-.1-.4 0-.7.1-.9.4-.2.2-.2.4-.2.7v.4h2.8v.3m-.4.1h-2.3c.1.4.3.8.6 1 .2.2.5.3.9.3.3 0 .5-.1.7-.3.1-.2.1-.4.1-.6v-.4M158.1 160c.6.1 1 .2 1.2.4.1.2.3.4.3.7 0 .1.1.2.1.3 0 .2-.1.5-.3.6-.3.3-.6.4-1.2.4-.2 0-.4-.1-.6-.1-.2 0-.5-.1-.7-.1l-.1-.5c.2.1.4.1.6.2h.7c.4 0 .6 0 .8-.2.1-.1.2-.3.2-.4v-.3c-.1-.3-.2-.5-.5-.6-.2-.2-.5-.3-.9-.3h-.5l-.1-.4h.5c.4 0 .7-.1.9-.2.2-.2.2-.4.2-.6v-.2c-.1-.4-.3-.7-.5-.8-.3-.2-.7-.3-1.2-.3-.2 0-.5 0-.7.1-.2 0-.4.1-.5.1l-.1-.4c.2-.1.4-.1.6-.2h.7c.6 0 1.1.1 1.5.3.4.3.6.7.7 1.2.1.1.1.2.1.3 0 .2-.1.3-.2.5s-.4.3-1 .5M162.8 162.4c-.6 0-1.1-.3-1.4-.7-.4-.4-.7-1.1-.9-1.9-.1-.4-.1-.8-.1-1.1 0-.4 0-.7.1-.9.2-.4.6-.6 1.2-.6.5 0 1 .2 1.4.6.3.5.6 1.1.8 2 .1.4.1.7.1 1 0 .4 0 .7-.1.9-.2.4-.6.7-1.1.7m-.1-.4c.4 0 .6-.2.7-.6.1-.1.1-.3.1-.6s0-.6-.1-1c-.2-.8-.4-1.3-.7-1.7-.2-.4-.6-.6-1-.6s-.6.2-.7.6c-.1.2-.1.4-.1.6 0 .3 0 .6.1 1.1.2.7.4 1.2.7 1.6.2.4.6.6 1 .6M167.8 162.3l-2.7-3.3-.1-.5h2.2l-.2-1.2h.5l.2 1.2h.7l.1.4h-.7l.7 3.4h-.7m.1-.3l-.6-3.1h-1.9l2.5 3.1M169.9 158l-.1-.6-.5-1h.3l.8 1.1.1.5h-.6" fill="#000000" fill-rule="evenodd"/></g><g clip-path="url(#u)" transform="matrix(2 0 0 -2 0 990)"><path d="M93.3 172.1h-.4l-.4-1.8h.5l.3 1.8M94.6 172.1h-.4l-.3-1.8h.4l.3 1.8M103 172c-.2 0-.4.1-.7.1-.2.1-.5.1-.7.1-.5 0-1-.1-1.4-.4-.3-.2-.5-.6-.6-1-.1-.1-.1-.2-.1-.3 0-.2.1-.4.2-.6.2-.2.5-.3 1-.4l.4-.1c.4-.1.6-.2.8-.4.1-.1.1-.2.1-.4v-.2c-.1-.4-.3-.6-.5-.8-.3-.1-.7-.2-1.1-.2-.3 0-.5 0-.8.1-.2.1-.5.2-.6.3l-.2-.5c.3-.1.5-.2.8-.2.2-.1.5-.1.7-.1.7 0 1.2.1 1.5.3.4.3.6.6.8 1.1v.4c0 .2-.1.4-.2.6-.2.2-.5.4-1 .5l-.4.1c-.4 0-.6.1-.8.3-.1.1-.1.2-.1.3v.3c.1.3.2.5.5.7.3.1.6.2 1 .2.2 0 .5 0 .7-.1.2-.1.4-.1.6-.2l.1.5M105.1 171.9h-.4l-.2-1.1h-.4l-.1-.3h.4l-.4-2.2c0-.2-.1-.4-.1-.5 0-.2.1-.4.1-.5.2-.1.4-.2.8-.2h.5l.1.3h-.5c-.1 0-.2.1-.3.1-.1 0-.1 0-.2.1v.7l.4 2.2h1.2v.3h-1.1l.2 1.1M110.4 169.2c0 .2.1.4.1.6 0 .3-.1.5-.2.7-.2.3-.6.4-1.1.4-.3 0-.5 0-.7-.1-.2 0-.4-.1-.6-.1l-.1-.4c.1 0 .3.1.5.1.2.1.5.1.7.1.4 0 .7-.1.8-.2.2-.2.2-.3.2-.5v-.4h-1c-.6 0-1-.1-1.4-.3-.3-.3-.5-.6-.6-1v-.3c0-.2.1-.4.2-.5.2-.2.4-.3.8-.3.3 0 .6 0 .8.1.2.1.5.4.8.8l-.1-.8h.4l.5 2.1m-1.2-.2h.7l-.1-.2c-.1-.4-.2-.8-.5-1.1-.3-.2-.7-.4-1-.4-.3 0-.5.1-.7.3-.1.1-.1.2-.1.4v.2c.1.3.2.5.5.6.2.2.6.2 1.2.2M112.2 170.8l-.8-3.7h.5l.8 3.7h-.5M112.5 172.3l-.1-.6h.5l.1.6h-.5M117.1 169.3c0 .3.1.4.1.6 0 .3-.1.5-.2.6-.1.3-.4.4-.7.4-.3 0-.5-.1-.7-.2-.1-.1-.4-.3-.7-.7l.2.8h-.5l-.7-3.7h.5l.4 2.1c0 .4.2.7.4 1 .3.2.5.3.9.3.3 0 .4-.1.5-.3.1-.1.1-.3.1-.4v-.5l-.4-2.2h.4l.4 2.2M119.2 172.3l-1.1-5.2h.5l1.1 5.2h-.5M124 169.1v.5c0 .3 0 .6-.2.8-.2.3-.5.5-1 .5s-1-.2-1.3-.5c-.4-.4-.7-.9-.8-1.5v-.5c0-.4 0-.7.2-.9.3-.4.7-.5 1.2-.5.3 0 .5 0 .7.1.3 0 .5.1.7.1v.4c-.1 0-.3-.1-.5-.2-.3 0-.5-.1-.7-.1-.5 0-.8.2-1 .4-.1.2-.2.4-.2.8 0 .1 0 .2.1.4h2.7l.1.2m-.5.1h-2.2c.1.4.3.8.5 1 .3.2.6.3.9.3.4 0 .6-.1.7-.3.1-.2.2-.3.2-.6 0-.1 0-.2-.1-.4M128.3 170.7c-.1.1-.3.1-.5.1-.2.1-.4.1-.6.1-.5 0-.8-.1-1.1-.3-.3-.2-.5-.4-.5-.8-.1-.1-.1-.1-.1-.2 0-.2.1-.3.2-.4.1-.2.3-.3.7-.4h.2c.4-.1.7-.2.8-.3.1-.1.1-.2.1-.3v-.2c-.1-.2-.2-.4-.4-.5-.2-.1-.5-.2-.8-.2-.2 0-.5.1-.7.1-.2.1-.4.2-.5.3l-.1-.5c.2-.1.4-.1.6-.2h.6c.5 0 .9.1 1.2.3.3.2.5.4.6.8v.2c0 .2-.1.3-.2.5-.1.1-.4.2-.8.3l-.2.1c-.3.1-.6.2-.7.3-.1 0-.1.1-.1.2v.2c.1.2.2.4.4.5.2.1.5.1.8.1h.6c.2-.1.3-.1.4-.2l.1.4M132.6 170.7c-.1.1-.3.1-.5.1-.2.1-.4.1-.6.1-.5 0-.8-.1-1.1-.3-.3-.2-.5-.4-.5-.8-.1-.1-.1-.1-.1-.2 0-.2.1-.3.2-.4.1-.2.3-.3.7-.4h.2c.4-.1.7-.2.8-.3 0-.1.1-.2.1-.3v-.2c-.1-.2-.2-.4-.4-.5-.2-.1-.5-.2-.8-.2-.2 0-.5.1-.7.1-.2.1-.4.2-.5.3l-.1-.5c.2-.1.4-.1.6-.2h.6c.5 0 .9.1 1.2.3.3.2.5.4.6.8v.2c0 .2-.1.3-.2.5-.1.1-.4.2-.8.3l-.2.1c-.3.1-.6.2-.7.3-.1 0-.1.1-.1.2v.2c.1.2.2.4.4.5.2.1.5.1.8.1h.6c.2-.1.3-.1.4-.2l.1.4M140.4 170.7c-.1.1-.2.1-.4.1-.2.1-.4.1-.7.1-.4 0-.8-.1-1.1-.3-.3-.2-.4-.4-.5-.8v-.2c0-.2 0-.3.1-.4.1-.2.4-.3.7-.4h.2c.4-.1.7-.2.8-.3.1-.1.1-.2.1-.3v-.2c0-.2-.2-.4-.4-.5-.2-.1-.5-.2-.8-.2-.2 0-.4.1-.7.1-.2.1-.4.2-.5.3l-.1-.5c.2-.1.4-.1.6-.2h.6c.5 0 .9.1 1.2.3.3.2.5.4.6.8v.2c0 .2 0 .3-.1.5-.2.1-.4.2-.9.3l-.2.1c-.3.1-.5.2-.6.3-.1 0-.2.1-.2.2v.2c.1.2.2.4.4.5.2.1.5.1.8.1h.6c.2-.1.4-.1.5-.2v.4M142.6 171.9h-.5l-.2-1.1h-.4v-.3h.4l-.4-2.2c-.1-.2-.1-.4-.1-.5 0-.2 0-.4.1-.5.1-.1.4-.2.8-.2h.5l.1.3h-.5c-.2 0-.3.1-.3.1-.1 0-.2 0-.2.1-.1.1-.1.1-.1.3 0 .1 0 .2.1.4l.4 2.2h1.1l.1.3h-1.2l.3 1.1M147.8 169.1v.5c0 .3 0 .6-.2.8-.2.3-.5.5-1 .5s-1-.2-1.3-.5c-.4-.4-.7-.9-.8-1.5v-.5c0-.4.1-.7.2-.9.3-.4.7-.5 1.2-.5.3 0 .5 0 .7.1.3 0 .5.1.7.1v.4c-.1 0-.3-.1-.5-.2-.3 0-.5-.1-.7-.1-.5 0-.8.2-1 .4-.1.2-.2.4-.2.8 0 .1.1.2.1.4h2.7l.1.2m-.4.1h-2.3c.1.4.3.8.5 1 .3.2.6.3 1 .3.3 0 .5-.1.7-.3 0-.2.1-.3.1-.6v-.4M152.1 169.1v.5c0 .3 0 .6-.2.8-.2.3-.5.5-1 .5s-.9-.2-1.3-.5c-.4-.4-.6-.9-.8-1.5v-.5c0-.4.1-.7.2-.9.3-.4.7-.5 1.3-.5.2 0 .4 0 .6.1.3 0 .5.1.7.1l.1.4c-.2 0-.4-.1-.6-.2-.3 0-.5-.1-.7-.1-.4 0-.7.2-.9.4-.2.2-.2.4-.2.8v.4h2.7l.1.2m-.4.1h-2.3c.1.4.3.8.6 1 .2.2.5.3.9.3.3 0 .5-.1.7-.3.1-.2.1-.3.1-.6v-.4M154.2 172.3l-1.1-5.2h.5l1.1 5.2h-.5" fill="#000000" fill-rule="evenodd"/></g><g clip-path="url(#v)" transform="matrix(2 0 0 -2 0 990)"><path d="M91.5 169.6l-1.8-2.3-.1-.4h1.5l-.1-.9h.3l.2.9h.5v.3h-.5l.5 2.4h-.5m.1-.2l-.4-2.2h-1.4l1.8 2.2" fill="#000000" fill-rule="evenodd"/></g><g clip-path="url(#w)" transform="matrix(2 0 0 -2 0 990)"><path d="M87 169.8l-.1-.3h1l.1.3h-.3l.7 3.3H88l-.7-.3-.1-.3.7.3-.6-3H87" fill="#000000" fill-rule="evenodd"/></g><g clip-path="url(#x)" transform="matrix(2 0 0 -2 0 990)"><path d="M238.7 131c-.3.1-.6.2-1 .2-.3.1-.7.1-1 .1-.8 0-1.4-.1-1.9-.5-.6-.4-.9-.8-1-1.5 0-.1-.1-.3-.1-.4 0-.3.1-.6.3-.8.2-.3.7-.5 1.4-.7l.6-.1c.5-.1.9-.3 1.1-.5.1-.1.2-.3.2-.6 0-.1 0-.2-.1-.3-.1-.5-.3-.8-.7-1.1-.4-.2-.9-.4-1.5-.4-.4 0-.8.1-1.1.2-.4.1-.7.3-1 .4l-.1-.7c.3-.1.6-.2 1-.3.4-.1.7-.1 1.1-.1.9 0 1.6.2 2.1.5.6.4.9.9 1 1.5.1.2.1.4.1.5 0 .4-.1.7-.3.9-.2.3-.7.6-1.4.7l-.6.1c-.5.2-.9.3-1.1.5-.1.1-.2.3-.2.5 0 .1 0 .2.1.3.1.5.3.8.7 1 .3.2.8.4 1.4.4.3 0 .6-.1 1-.2.3-.1.6-.2.8-.3l.2.7M242 130.7l-1.4-6.2h-.5l-.1-.5h1.8l.1.5h-.5l1.3 6.2h.5l.1.5h-1.8l-.1-.5h.6M246.1 131.2l-1.4-7.2h1.8c1.4 0 2.4.3 3.1.9.8.6 1.3 1.5 1.5 2.7.1.4.1.8.1 1.1 0 .7-.1 1.3-.5 1.6-.5.6-1.4.9-2.7.9h-1.9m.6-.6h1.3c1 0 1.7-.2 2.1-.7.2-.3.3-.7.3-1.3 0-.3 0-.6-.1-1-.2-1-.6-1.8-1.1-2.3-.6-.5-1.4-.7-2.4-.7h-1.3l1.2 6M254.1 131.2l-1.5-7.2h4.5l.2.6h-3.8l.6 3h3.5l.2.6h-3.6l.6 2.4h3.6l.2.6h-4.5M268.7 127.4c.7.2 1.1.4 1.4.7.2.3.4.6.5 1.1.1.2.1.4.1.6 0 .4-.1.7-.3.9-.4.3-.9.5-1.8.5h-2.1L265 124h.7l.7 3.2h1.2c.2 0 .4-.1.6-.1.1 0 .3-.1.4-.2.2-.2.4-.5.5-1l.5-1.9h.8l-.5 1.9c-.1.4-.2.7-.4.9-.1.3-.4.4-.8.6m-1.6 3.2h1.4c.5 0 .9-.1 1.1-.3.2-.2.3-.4.3-.7 0-.1-.1-.3-.1-.4-.1-.5-.3-.8-.6-1.1-.4-.2-.8-.4-1.3-.4h-1.4l.6 2.9M273.6 131.2L272 124h4.6l.1.6h-3.8l.7 3h3.5l.1.6h-3.5l.5 2.4h3.7l.1.6h-4.4M279.3 131.2l-.2-.6h2.4l-1.4-6.6h.8l1.4 6.6h2.4l.2.6h-5.6M289.4 131.1l-4-7.2h.7l1 1.9h3.3l.3-1.9h.7l-1.1 7.2h-.9m.3-.5l.6-4.2h-2.9l2.3 4.2M294.5 130.7l-1.4-6.2h-.5l-.1-.5h1.8l.1.5h-.5l1.3 6.2h.5l.1.5H294l-.1-.5h.6M298.5 131.2l-1.3-7.2h.6l1.2 6.6 1.7-6.6h1l1.3 7.2h-.6l-1.2-6.6-1.8 6.6h-.9M305.9 131.2l-1.6-7.2h4.6l.1.6h-3.8l.6 3h3.6l.1.6H306l.5 2.4h3.7l.1.6h-4.4M315.4 127.4c.6.2 1.1.4 1.4.7.2.3.4.6.5 1.1.1.2.1.4.1.6 0 .4-.1.7-.4.9-.3.3-.8.5-1.7.5h-2.1l-1.5-7.2h.7l.7 3.2h1.2c.2 0 .4-.1.6-.1.1 0 .3-.1.4-.2.2-.2.4-.5.5-1l.5-1.9h.8l-.5 1.9c-.1.4-.3.7-.4.9-.1.3-.4.4-.8.6m-1.6 3.2h1.4c.5 0 .9-.1 1.1-.3.2-.2.2-.4.2-.7v-.4c-.1-.5-.3-.8-.6-1.1-.4-.2-.8-.4-1.3-.4h-1.4l.6 2.9" fill="#000000" fill-rule="evenodd"/><path d="M232 121.7h85.4" fill="none" stroke="#000000" stroke-width=".84" stroke-linecap="round" stroke-miterlimit="1.414"/></g><g clip-path="url(#y)" transform="matrix(2 0 0 -2 0 990)"><path d="M402.2 244.4l-5.3 3.6" fill="none" stroke="#000000" stroke-width=".48" stroke-linecap="round" stroke-miterlimit="1.414"/></g><g clip-path="url(#z)" transform="matrix(2 0 0 -2 0 990)"><path d="M397.2 250.3v-.4l1.7-.4v.4l-1.7.4M397.2 251.6v-.4l1.7-.4v.5l-1.7.3" fill="#000000" fill-rule="evenodd"/></g><g clip-path="url(#A)" transform="matrix(2 0 0 -2 0 990)"><path d="M402.9 246.9c-.4.5-.8.9-1 1.2-.2.3-.4.4-.4.5-.2.2-.3.3-.5.4-.1.1-.2.1-.4.1-.1.1-.1.1-.2.1-.2 0-.4-.1-.5-.2-.2-.2-.3-.5-.3-.8 0-.2.1-.3.1-.5s.1-.4.2-.5l.3-.1c-.1.1-.1.3-.2.5 0 .2-.1.4-.1.5 0 .3.1.4.2.5.1.1.3.2.4.2h.2c.1-.1.2-.1.3-.2.2-.1.3-.3.5-.5.1-.1.3-.3.6-.7.4-.4.6-.7.8-.9l.3-.1v2.2l-.3.1v-1.8" fill="#000000" fill-rule="evenodd"/></g><g clip-path="url(#B)" transform="matrix(2 0 0 -2 0 990)"><path d="M399.5 244l.3-.1v1l-.3.1v-.3l-3.3.7v-.5l.2-.6.4-.1-.3.7 3-.6v-.3" fill="#000000" fill-rule="evenodd"/><path d="M402.3 156.2l-5.3 3.6" fill="none" stroke="#000000" stroke-width=".48" stroke-linecap="round" stroke-miterlimit="1.414"/></g><g clip-path="url(#C)" transform="matrix(2 0 0 -2 0 990)"><path d="M397.2 162.1v-.4l1.8-.4v.4l-1.8.4M397.2 163.4v-.4l1.8-.4v.5l-1.8.3" fill="#000000" fill-rule="evenodd"/></g><g clip-path="url(#D)" transform="matrix(2 0 0 -2 0 990)"><path d="M403 158.7c-.5.5-.9.9-1.1 1.2-.2.3-.3.4-.4.5l-.4.4c-.2.1-.3.1-.4.1-.1.1-.2.1-.3.1-.2 0-.3-.1-.5-.2-.1-.2-.2-.5-.2-.8v-.5c.1-.2.1-.4.2-.5l.3-.1c0 .1-.1.3-.1.5-.1.2-.1.4-.1.5 0 .3 0 .4.2.6.1 0 .2.1.3.1h.2c.1-.1.2-.1.4-.2.1-.1.3-.3.4-.5l.7-.7c.3-.4.5-.7.7-.9l.4-.1v2.2l-.3.1v-1.8" fill="#000000" fill-rule="evenodd"/></g><g clip-path="url(#E)" transform="matrix(2 0 0 -2 0 990)"><path d="M399.5 155.8l.3-.1v1l-.3.1v-.3l-3.3.7v-.5l.3-.6.3-.1-.3.7 3-.6v-.3" fill="#000000" fill-rule="evenodd"/></g><g clip-path="url(#F)" transform="matrix(2 0 0 -2 0 990)"><path d="M.2.1h1223.6v791.8H.2V.1" fill="none" stroke="#000000" stroke-width=".36" stroke-linecap="round" stroke-miterlimit="1.414"/>
</g>
</svg>
